<?xml version="1.0" encoding="utf-8"?>
<!-- Generator: Adobe Illustrator 22.1.0, SVG Export Plug-In . SVG Version: 6.00 Build 0)  -->
<svg version="1.1" id="Capa_1" xmlns="http://www.w3.org/2000/svg" xmlns:xlink="http://www.w3.org/1999/xlink" x="0px" y="0px"
	 viewBox="0 0 100 100" style="enable-background:new 0 0 100 100;" xml:space="preserve">
<style type="text/css">
	.st0{display:none;fill:#666666;}
	.st1{fill:none;stroke:#000000;stroke-miterlimit:10;}
	.st2{opacity:0.72;stroke:#000000;stroke-miterlimit:10;}
	.st3{fill:#FFFFFF;}
	.st4{display:none;}
	.st5{display:inline;fill:none;stroke:#000000;stroke-miterlimit:10;}
	.st6{opacity:0.72;}
	.st7{fill:#00FFFF;}
	.st8{fill:#FF931E;}
</style>
<rect x="-8" y="-1" class="st0" width="112" height="109"/>
<rect x="-35.8" y="-3.6" style="fill:none;" width="13.9" height="10.1"/>
<text transform="matrix(1 0 0 1 -35.75 5.7373)" style="display:none;fill:#FFFFFF; font-family:'Bitter-Bold'; font-size:12px;">1</text>
<path class="st1" d="M23.3,15"/>
<path class="st1" d="M15.4,26.2"/>
<path class="st1" d="M14.9,27.3"/>
<path class="st1" d="M24.3,14"/>
<path class="st1" d="M23.3,15"/>
<path class="st2" d="M28.5,20.3c0,5.4-4.4,9.7-9.7,9.7S9,25.6,9,20.3s4.4-9.7,9.7-9.7S28.5,14.9,28.5,20.3"/>
<g>
	<path class="st1" d="M27.3,13"/>
	<path class="st1" d="M19.4,24.2"/>
	<path class="st1" d="M18.9,25.3"/>
	<path class="st1" d="M28.3,12"/>
	<path class="st1" d="M27.3,13"/>
	<g>
		<path class="st3" d="M20.2,19.3c0.4,0.2,0.8,0.6,1,1c0.2,0.4,0.4,0.9,0.4,1.4c0,0.6-0.1,1.1-0.4,1.5c-0.3,0.4-0.7,0.8-1.2,1.1
			c-0.5,0.3-1,0.4-1.6,0.4c-0.3,0-0.7-0.1-1-0.2c-0.3-0.1-0.6-0.2-0.8-0.4c-0.1-0.1-0.1-0.1-0.2-0.3c0-0.1-0.1-0.2-0.1-0.3
			c0-0.1,0-0.2,0.1-0.3s0.2-0.1,0.4-0.1c0.1,0,0.2,0.1,0.4,0.2c0.4,0.3,0.7,0.4,1.1,0.4c0.4,0,0.7-0.1,1-0.3s0.6-0.4,0.8-0.7
			c0.2-0.3,0.3-0.6,0.3-0.9c0-0.5-0.2-0.9-0.5-1.2S19.1,20,18.6,20c-0.2,0-0.4,0-0.6,0.1c-0.2,0.1-0.4,0.1-0.6,0.3
			c-0.1,0-0.2,0.1-0.3,0.1c-0.1,0-0.2,0.1-0.2,0.1c-0.2,0-0.4-0.1-0.5-0.2c-0.1-0.1-0.2-0.3-0.2-0.5l0-0.1l0.4-3.1
			c0-0.1,0.1-0.2,0.2-0.3c0.1-0.1,0.2-0.1,0.4-0.1h3.5c0.2,0,0.3,0.1,0.4,0.2c0.1,0.1,0.1,0.2,0.1,0.4s0,0.3-0.1,0.4
			s-0.2,0.1-0.4,0.1h-3.1l-0.3,2.1c0.2-0.1,0.4-0.2,0.6-0.2s0.5-0.1,0.8-0.1C19.3,18.9,19.7,19,20.2,19.3z"/>
	</g>
</g>
<g class="st4">
	<path class="st5" d="M-10.7,11"/>
	<path class="st5" d="M-18.6,22.2"/>
	<path class="st5" d="M-19.1,23.3"/>
	<path class="st5" d="M-9.7,10"/>
	<path class="st5" d="M-10.7,11"/>
	<rect x="-22.4" y="13.7" style="display:inline;fill:none;" width="9.4" height="12.3"/>
	
		<text transform="matrix(1 0 0 1 -22.4438 22.5386)" style="display:inline;fill:#FFFFFF; font-family:'Quicksand-Medium'; font-size:12px;">4</text>
</g>
<path d="M71.4,23.1"/>
<path d="M24.4,54.6c0,0-0.1,0.1-0.1,0.1"/>
<g>
	<path class="st6" d="M82.6,51.2c-0.1,0-0.1-0.2-0.2-0.3c-0.3-1.1-0.1-2.3-0.4-3.5c-0.2-0.7-0.1-1.5-0.1-2.3c0-1.2-0.1-2.4-0.3-3.6
		c-0.1-0.5-0.2-1-0.3-1.5c-0.2-0.7-0.3-1.4-0.5-2.1c-0.2-0.8-0.3-1.7-0.5-2.6c0-0.1-0.1-0.3-0.2-0.4c-0.2-0.7-0.5-1.5,0-2.2
		c0.1-0.1,0.1-0.3,0.2-0.5c0.1-0.4,0.3-0.8,0.2-1.2c-0.1-0.7-0.4-1.5-0.6-2.2c-0.3-1-0.5-2-0.8-3c-0.2-0.7-0.4-1.5-0.6-2.2
		c-0.2-0.7-0.6-1.3-0.9-1.9c-0.5-1.1-1.3-1.9-2.2-2.7c-0.8-0.7-1.8-1.2-2.7-1.7c-1.1-0.6-2.3-0.7-3.5-1.2c-0.5-0.2-1-0.4-1.4-0.5
		C67,15.5,66.1,15,65.2,15c-2.4-0.1-4.8-0.2-7.2,0.4c-0.6,0.2-1.3,0.2-1.9,0.4c-0.4,0.1-0.9,0.3-1.3,0.5c-0.3,0.1-0.6,0.1-0.9,0.2
		c-0.6,0.2-1.1,0.4-1.7,0.6c-0.6,0.2-1.3,0.4-1.9,0.6c-0.8,0.4-1.5,0.9-2.3,1.2c-0.9,0.3-1.5,0.9-2.1,1.4c-1.3,1.2-2.5,2.5-3.5,3.9
		c-0.5,0.7-1,1.3-1.5,1.9c-0.2,0.3-0.5,0.7-0.7,1c-0.3,0.5-0.5,1.1-0.9,1.6c-0.7,1-1.1,2.2-1.3,3.4C38,32.8,38,33.4,37.9,34
		c-0.2,0.8-0.4,1.6-0.7,2.4c-0.1,0.4-0.3,0.8-0.5,1.1c-0.2,0.2-0.6,0.4-0.9,0.5c-0.4,0.2-0.9,0.4-1.2,0.7c-0.5,0.4-0.9,1-1.3,1.5
		c-0.5,0.6-0.4,2,0.3,2.4c0.5,0.3,1.1,0.5,1.6,0.6c0.7,0.1,1.1,0.4,1.3,1.1c0.1,0.6,0.3,1.2,0.3,1.7c0.2,1,0.3,1.9,0.4,2.9
		c0.1,0.8,0.1,1.5,0.1,2.3c0,0.3,0.1,0.6,0.3,0.9c0.2,0.4,0.6,0.3,0.9,0.1c0.3-0.3,0-0.4-0.2-0.6c-0.1-0.2-0.2-0.4-0.2-0.6
		c-0.1-0.8,0-1.6-0.1-2.4c-0.1-1.1-0.4-2.3-0.6-3.4c-0.1-0.7-0.1-1.4-0.5-2.1c-0.3-0.5-0.6-0.8-1.2-0.7c-0.3,0-0.6,0-1,0
		c-0.7-0.1-1.3-1.2-0.9-1.8c0.2-0.4,0.5-0.7,0.9-1c0.8-0.5,1.5-1.1,2.4-1.4c0.4-0.2,0.9-0.1,1.1-0.7c0-0.1,0.2-0.2,0.3-0.3
		c0,0,0-0.1,0-0.1c-0.6,0-0.6-0.2-0.5-0.6c0.2-0.4,0.3-0.9,0.4-1.3c0.1-0.7,0.2-1.4,0.4-2.1c0.3-1.3,0.6-2.6,1.3-3.8
		c0.6-0.9,1.1-1.8,1.8-2.7c0.8-1.1,1.6-2,2.4-3.1c0.8-1.2,1.9-2,3-2.9c0.7-0.6,1.6-0.9,2.4-1.3c0.4-0.2,0.8-0.3,1.3-0.5
		c0.7-0.3,1.4-0.6,2.1-0.9c0.7-0.2,1.5-0.3,2.1-0.6c0.7-0.3,1.4-0.6,2.2-0.7c0.5-0.1,1.1-0.3,1.6-0.4c1.1-0.1,2.1-0.1,3.2-0.2
		c0.3,0,0.6-0.2,1-0.2c0.4,0,0.9,0.1,1.3,0.2c0.6,0.1,1.2,0.1,1.7,0.3c1,0.3,1.9,0.7,2.8,1c0.6,0.2,1.2,0.3,1.7,0.5
		c1,0.4,1.9,0.8,2.8,1.3c0.5,0.2,0.9,0.6,1.3,0.9c0.3,0.2,0.5,0.4,0.8,0.7c0.4,0.4,0.7,0.8,1,1.3c0.2,0.4,0.4,0.8,0.6,1.2
		c0.7,1.1,0.9,2.4,1.2,3.6c0.2,0.8,0.4,1.7,0.7,2.5c0.5,1.3,1,2.6,0.5,4c-0.1,0.3-0.1,0.4-0.5,0.3c-0.2-0.1-0.5-0.1-0.8-0.1
		c-0.7,0-1.5,0.1-2.2,0.1c-1,0-2-0.2-2.9-0.3c-1.6-0.1-3.1,0-4.7-0.4c-1.3-0.3-2.6-0.4-3.9-0.5c-1.8-0.1-3.5-0.1-5.3,0.5
		c-1.4,0.4-2.8,1-4.1,1.8c-0.8,0.5-1.6,0.9-2.3,1.5c-1.1,1-2.2,2.1-3.2,3.1c-0.8,0.8-1.7,1.6-2.5,2.4c-0.2,0.2-0.5,0.4-0.7,0.6
		c-1,0.5-2,1-2.9,1.5c-0.6,0.3-1.2,0.5-1.8,0.8c-0.2,0.1-0.4,0.2-0.5,0.3c-0.3,0.2-0.6,0.4-1,0.7c0,0,0,0.1,0,0.1
		c0.1-0.1,0.2-0.1,0.4-0.2c0.1,0.2,0.1,0.3,0.2,0.5c0.1,1.1,0.2,2.3,0.3,3.4c0,0.6,0.2,1.2,0.5,1.7c0.2,0.3,0.2,0.6,0.4,0.9l0,0
		c0,0.4,0,0.7,0,1.1c0,0.1,0,0.2,0,0.3c0-1,0.1-1.3,0.9-1.3c0.2-0.1,0.2-0.3,0.2-0.5c0-0.1-0.3-0.2-0.4-0.3
		c-0.1-0.1-0.3-0.1-0.3-0.2c-0.2-0.6-0.4-1.1-0.5-1.7c-0.1-1-0.2-2-0.3-2.9c0-0.5,0.1-0.8,0.6-1c0.4-0.2,0.9-0.4,1.3-0.6
		c0.6-0.3,1.1-0.7,1.6-0.9c1-0.3,1.9-0.8,2.7-1.6c0.9-0.9,1.8-1.7,2.7-2.6c0.8-0.8,1.6-1.6,2.4-2.4c0.3-0.3,0.6-0.6,1-0.8
		c0.9-0.5,1.9-1.1,2.8-1.6c0.4-0.2,0.9-0.5,1.3-0.6c0.7-0.2,1.3-0.5,2-0.6c0.5-0.1,1-0.3,1.5-0.3c1-0.1,1.9,0,2.9,0
		c0.6,0,1.3,0,1.9,0.1c0.9,0.2,1.8,0.5,2.7,0.6c1.2,0.2,2.5,0.2,3.7,0.3c0.3,0,0.6,0,1,0.1c1.6,0.1,3.2,0.3,4.7,0
		c0.3,0,0.7,0.1,0.8,0.3c0.2,0.5,0.3,1.1,0.4,1.6c0.3,1.2,0.5,2.4,0.8,3.7c0.3,1.4,0.6,2.7,0.7,4.1c0.1,1.1,0.1,2.3,0.2,3.5
		c0,0.7,0.2,1.4,0.3,2c0,0.7,0,1.4,0,2.1c0.5,0,0.9,0.1,1.3,0.3C82.9,51.3,82.8,51.3,82.6,51.2z"/>
	<path class="st7" d="M69.6,51.1c-0.5-1.2-1-2.5-1.5-3.7c-0.1-0.2-0.1-0.5-0.4-0.4c-0.1,0.1-0.2,0.4-0.2,0.5c0.2,1.1,0.5,2.1,1,3
		c0.2,0.3,0.4,0.7,0.5,1.1c0.4,0,0.6,0,0.9,0C69.8,51.5,69.7,51.3,69.6,51.1z"/>
	<path class="st7" d="M35.3,56.5c0.1,1.3,0.8,2.5,1.9,3c0.7,0.3,1.2,0.8,1.8,1.3c0.2,0.2,0.1,0.7,0.1,1c0,0.5-0.1,1,0,1.5
		c0,0.4,0.4,0.6,0.9,0.4c1-0.3,1.9-0.9,2.6-1.6c0.1-0.2,0.5-0.1,0.7-0.2c0,0.2-0.1,0.4-0.1,0.6c-0.2,0.7-0.9,0.9-1.4,1.3
		c-0.4,0.4-1,0.4-1.5,0.6c-0.6,0.3-1,0-1.5,0c-0.5-0.1-0.7-0.7-0.6-1.3c0.1-0.6,0.2-1.2,0.1-1.8c0-0.3-0.4-0.6-0.7-0.7
		c-0.4-0.3-0.9-0.4-1.4-0.6c-0.2-0.1-0.4-0.2-0.5-0.4c-1-0.9-1.4-2.1-1.1-3.4c0.1-0.5,0.4-0.9,0.7-1.3c0.6-0.9,1.5-1.2,2.6-1.4
		c0.9-0.2,1.8-0.2,2.7,0.1c0.6,0.2,1.2,0.6,1.8,1c0.1,0.1,0,0.4,0,0.7c-0.2,0-0.6,0-0.7-0.1c-0.8-0.9-1.8-1.2-3-1.1
		c-0.7,0.1-1.3,0.2-1.9,0.4C35.7,54.8,35.4,55.7,35.3,56.5z"/>
	<path class="st6" d="M43.5,87.5c-0.4-0.2-0.5-0.4-0.5-0.8c0.1-1.5,0.3-3.1,0.3-4.6c0-1.3-0.3-2.5-0.5-3.8c0-0.3-0.1-0.5-0.1-0.8
		c-0.2-1.3-0.3-2.5-0.5-3.8c-0.1-0.5-0.2-0.9-0.3-1.4c-0.2-1.1-0.4-2.2-0.6-3.3c-0.1-0.4,0-0.7,0.3-0.7c0.2,0,0.5,0.3,0.6,0.5
		c0.1,0.4,0.1,0.9,0.2,1.3c0.2,0.8,0.4,1.7,0.5,2.5c0.1,0.7,0.1,1.5,0.2,2.2c0,0.4,0.1,0.8,0.2,1.2c0,0.2,0.1,0.4,0.1,0.6
		c0.2,2.2,0.7,4.4,0.5,6.7c-0.1,1.2-0.1,2.3-0.2,3.5C43.7,87.1,43.6,87.3,43.5,87.5z"/>
	<path class="st6" d="M77.1,40.7c-0.4-0.1-0.9-0.3-1.4-0.6c-0.6-0.4-1.1-0.9-1.6-1.5c-0.4-0.5-0.7-1.1-1-1.7
		c-0.1-0.1-0.1-0.2-0.2-0.2c-0.1-0.1-0.2-0.3-0.3-0.4c0.2-0.1,0.3-0.2,0.5-0.2c0.3,0,0.5,0.1,0.8,0.2c0.4,0.1,0.9,0.3,1.3,0.4
		c1,0.2,1.9,0.7,2.6,1.3c0.4,0.3,0.9,0.6,1.3,1c0.4,0.4,0.3,0.6-0.1,1C78.5,40.4,77.9,40.6,77.1,40.7z M74.3,37.1
		c0,0.1-0.1,0.1-0.1,0.2c0.4,0.9,0.9,1.6,1.7,2.2c0.6,0.4,1.2,0.7,1.9,0.4c0.2-0.1,0.4-0.3,0.5-0.4c-0.1-0.1-0.3-0.3-0.4-0.4
		c-0.5-0.3-0.9-0.7-1.4-1C75.8,37.7,75.1,37.4,74.3,37.1z"/>
	<path class="st6" d="M61.6,37c0.2,1.5-0.5,2.6-1.4,3.6c-0.8,0.9-1.8,1.3-3,1.2c-0.4,0-0.7-0.2-1-0.4c-0.5-0.3-0.5-0.5-0.2-1
		c0.3-0.5,0.6-0.9,0.9-1.3c0.1-0.1,0.3-0.3,0.5-0.3c1.1-0.4,2.3-0.8,3.4-1.3C61,37.4,61.3,37.2,61.6,37z M60.9,38.4
		c0,0-0.1-0.1-0.1-0.1c-0.2,0-0.3,0.1-0.5,0.1c-0.5,0.2-1,0.5-1.6,0.6c-0.8,0.2-1.5,0.5-2,1.3c-0.2,0.3-0.1,0.6,0.2,0.6
		c0.6,0,1.3,0.1,1.8-0.1c0.5-0.2,1-0.7,1.4-1.2C60.4,39.3,60.6,38.8,60.9,38.4z"/>
	<path class="st6" d="M69.2,78.9c0.4,0.1,0.7,0.5,0.6,0.7c-0.4,0.7-0.1,1.3,0,2c0.3,1.5,0.6,3,0.9,4.5c0.2,0.9,0.5,1.8,0.8,2.7
		c0.1,0.2,0.3,0.4,0.5,0.6c0.1,0.1,0.2,0.3,0.2,0.4c0,0.1-0.2,0.2-0.3,0.2c-0.3,0-0.7,0-0.9-0.4c-0.3-0.8-0.6-1.6-0.8-2.4
		c-0.4-1.5-0.7-2.9-1-4.4c-0.2-1.1-0.5-2.1-0.3-3.2C68.9,79.3,69.1,79.1,69.2,78.9z"/>
	<path class="st6" d="M78.7,45.2c0.2,0.7,0,1.2-0.5,1.5c-0.4,0.3-1.4,0.1-1.7-0.3c-0.2-0.4-0.4-0.7-0.1-1.1c0,0,0-0.2-0.1-0.2
		c-0.1,0-0.3-0.1-0.4,0c-0.5,0.3-1,0.6-1.5,0.9c-0.1,0.1-0.2,0.2-0.3,0.2c-0.2,0-0.4,0-0.7,0c0.1-0.2,0.1-0.4,0.2-0.6
		c0.3-0.6,0.9-0.7,1.4-1c1.1-0.6,2.4-0.3,3.5-0.3c0.5,0,0.9,0.4,1.4,0.7c0.1,0,0.1,0.3,0,0.3c-0.2,0.1-0.5,0.2-0.8,0.2
		C79.2,45.6,79,45.4,78.7,45.2z M77.4,45.9c0.4-0.1,0.3-0.5,0.4-0.7c0,0-0.1-0.1-0.2-0.1c-0.1,0.2-0.2,0.4-0.3,0.6
		C77.3,45.8,77.3,45.8,77.4,45.9z M77.9,45.1c0,0.1-0.1,0.2-0.1,0.2c0.2,0.1,0.3,0.2,0.5,0.4c0-0.2,0.1-0.3,0.1-0.5
		C78.3,45.1,78.1,45.1,77.9,45.1z"/>
	<path class="st6" d="M61.2,47c0.2,0.7,0,1.2-0.5,1.5c-0.4,0.3-1.4,0.1-1.7-0.3c-0.2-0.4-0.4-0.7-0.1-1.1c0,0,0-0.2-0.1-0.2
		c-0.1,0-0.3-0.1-0.4,0c-0.5,0.3-1,0.6-1.5,0.9c-0.1,0.1-0.2,0.2-0.3,0.2c-0.2,0-0.4,0-0.7,0c0.1-0.2,0.1-0.4,0.2-0.6
		c0.3-0.6,0.9-0.7,1.4-1c1.1-0.6,2.4-0.3,3.5-0.3c0.5,0,0.9,0.4,1.4,0.7c0.1,0,0.1,0.3,0,0.3c-0.2,0.1-0.5,0.2-0.8,0.2
		C61.6,47.3,61.4,47.2,61.2,47z M59.8,47.7c0.4-0.1,0.3-0.5,0.4-0.7c0,0-0.1-0.1-0.2-0.1c-0.1,0.2-0.2,0.4-0.3,0.6
		C59.7,47.5,59.8,47.6,59.8,47.7z M60.4,46.8c0,0.1-0.1,0.2-0.1,0.2c0.2,0.1,0.3,0.2,0.5,0.4c0-0.2,0.1-0.3,0.1-0.5
		C60.7,46.9,60.6,46.9,60.4,46.8z"/>
	<path d="M44.4,68.8c-0.1,0-0.2,0.2-0.3,0.1c-0.3-0.2-0.5-0.3-0.7-0.5c0,0,0-0.3,0.1-0.4C43.7,67.9,44.4,68.5,44.4,68.8z"/>
	<path d="M53.4,54.8"/>
	<path d="M45.4,69.5c-0.6,0.2-0.7,0.1-0.6-0.4C45,69.2,45.2,69.3,45.4,69.5z"/>
	<path d="M52.9,55.1c-0.2,0-0.5,0-0.7,0c0-0.1,0-0.1,0-0.2c0.2,0,0.5,0,0.7,0C52.9,55,52.9,55,52.9,55.1z"/>
	<path class="st3" d="M77.4,45.9c0-0.1-0.1-0.2-0.1-0.2c0.1-0.2,0.2-0.4,0.3-0.6c0.1,0,0.2,0.1,0.2,0.1
		C77.7,45.5,77.8,45.8,77.4,45.9z"/>
	<path class="st3" d="M77.9,45.1c0.2,0,0.4,0.1,0.5,0.1c0,0.2-0.1,0.3-0.1,0.5c-0.2-0.1-0.3-0.2-0.5-0.4
		C77.9,45.2,77.9,45.2,77.9,45.1z"/>
	<g>
		<g>
			<path class="st8" d="M48.4,74.4c3.6,2.9,10.5,2.2,14.8,2.4c3,0.2,6,0.2,9,0.4c2,0.1,5.1,0.8,6.8-0.6c2.1-1.7,3.6-6.9,4.2-9.5
				c0.4-2.1,0.7-4.2,0.7-6.3c0.1-3.3-1-5.8-1.9-8.9c-0.1-0.5-0.9-0.3-0.7,0.2c1.4,4.9,2.1,8.7,1.2,13.7c-0.5,2.9-1.6,7.1-3.5,9.5
				c-2.2,2.8-11.3,1-14.7,0.8c-4.3-0.2-12,0.6-15.5-2.2C48.5,73.5,48,74.1,48.4,74.4L48.4,74.4z"/>
		</g>
	</g>
	<g>
		<g>
			<path class="st8" d="M82.3,51.6c-6,0-12.7,0.3-18.5,1.7c-4.6,1.1-9.4,1.7-14.2,1.6c-0.2,0-0.3,0.1-0.4,0.3
				c-0.2,0.8,0.8,1.3,1.2,1.8c0.1,0.1,0.4,0.2,0.5,0c1.4-1.8,6.1-0.8,8.3-1.2c2.5-0.4,5-0.4,7.5-1c4.8-1.2,9.6-1.9,14.7-1.9
				c0.5,0,0.5-0.7,0-0.8c-5.2,0-9.9,0.6-14.9,1.9c-2.8,0.7-6.5,1-9.4,1.2c-1.8,0.2-3.7,0.2-5.5,0.3c-0.4,0-0.8,0.6-1,0.6
				c-0.1,0-0.5-0.8-0.7-0.8c-0.2,0,0.3,0.4,0.8,0.2c0.9-0.3,2.1-0.2,3.1-0.2c2.6-0.1,5-0.1,7.5-0.7c6.7-1.7,14-2.3,20.9-2.4
				C82.8,52.4,82.8,51.6,82.3,51.6L82.3,51.6z"/>
		</g>
	</g>
	<g>
		<g>
			<path class="st8" d="M50.2,55.5c-2.9-0.4-6.3-2.1-8.4-4.1c-0.3-0.3-0.9,0.2-0.5,0.5c1.5,1.4,3.1,2.2,4.9,3
				c1.2,0.5,2.5,1.1,3.8,1.3C50.5,56.2,50.7,55.5,50.2,55.5L50.2,55.5z"/>
		</g>
	</g>
	<g>
		<g>
			<path class="st8" d="M47.7,73.7C47.7,73.7,47.7,73.7,47.7,73.7c0.2,0.2,0.5,0.2,0.6,0c1.4-2.1,1.5-5.3,1.8-7.7
				c0.4-3.3,0.8-6.7,0.2-10.1c-0.1-0.5-0.8-0.3-0.7,0.2c0.5,3,0.3,6.2-0.1,9.1c-0.2,1.4-0.2,2.9-0.5,4.2c-0.2,0.8-1.4,3.2-0.8,3.8
				C47.8,72.8,47.3,73.4,47.7,73.7L47.7,73.7z"/>
		</g>
	</g>
	<g>
		<g>
			<path class="st8" d="M48.2,73.5c-0.3-2-0.8-3.2-2.6-4.3c-2.1-1.3-4.3-2.3-5.8-4.3c-0.3-0.4-0.8,0.2-0.5,0.5
				c1.2,1.6,2.9,2.7,4.6,3.7c0.9,0.5,1.9,0.9,2.6,1.8c0.5,0.7,0.8,1.8,0.9,2.7C47.6,74.1,48.3,73.9,48.2,73.5L48.2,73.5z"/>
		</g>
	</g>
	<g>
		<g>
			<path class="st8" d="M78.7,60.1c-2.3,0-4.4-0.1-6.7-0.5c-1.5-0.2-1.4-0.4-2.8,0.1c-1.6,0.6-3.1,1.5-4.8,2c-1.7,0.5-3.3,0.5-5,0.8
				c-0.5,0.1-0.3,0.8,0.2,0.7c2.8-0.6,5.4-0.8,8.2-2c3.3-1.4,7.4-0.4,10.9-0.4C79.2,60.9,79.2,60.1,78.7,60.1L78.7,60.1z"/>
		</g>
	</g>
	<g>
		<g>
			<path class="st8" d="M79.1,66.9c-2.2,0-4.6-0.6-6.6-0.2c-1.6,0.3-3.1,1.3-4.7,1.7c-2,0.4-4.1,0.4-6.2,0.4c-0.5,0-0.5,0.7,0,0.8
				c3,0,6.1,0,8.9-1.1c2.9-1.1,5.4-0.7,8.6-0.7C79.5,67.7,79.5,66.9,79.1,66.9L79.1,66.9z"/>
		</g>
	</g>
</g>
</svg>
