<?xml version="1.0" encoding="utf-8"?>
<!-- Generator: Adobe Illustrator 22.1.0, SVG Export Plug-In . SVG Version: 6.00 Build 0)  -->
<svg version="1.1" id="Capa_1" xmlns="http://www.w3.org/2000/svg" xmlns:xlink="http://www.w3.org/1999/xlink" x="0px" y="0px"
	 viewBox="0 0 100 100" style="enable-background:new 0 0 100 100;" xml:space="preserve">
<style type="text/css">
	.st0{display:none;fill:#666666;}
	.st1{fill:#00FFFF;}
	.st2{opacity:0.72;fill:none;stroke:#000000;stroke-miterlimit:10;}
	.st3{fill:#FF931E;}
	.st4{fill:none;}
	.st5{opacity:0.72;}
	.st6{fill:none;stroke:#000000;stroke-miterlimit:10;}
	.st7{opacity:0.72;stroke:#000000;stroke-miterlimit:10;}
	.st8{fill:#FFFFFF;}
	.st9{display:none;}
	.st10{display:inline;fill:#FF931E;}
	.st11{display:inline;fill:#00FFFF;}
</style>
<rect x="-8" y="-1" class="st0" width="112" height="109"/>
<rect x="-35.8" y="-3.6" class="st4" width="13.9" height="10.1"/>
<text transform="matrix(1 0 0 1 -35.75 5.7373)" style="display:none;fill:#FFFFFF; font-family:'Bitter-Bold'; font-size:12px;">1</text>
<g>
	<path class="st1" d="M44.3,85.1c0,0.1,0.1,0.3,0.1,0.5c0,0.1,0,0.2,0.1,0.3c0.2,0.6,0.4,1.3,0.6,1.9c0.2,0.5,0.5,1,0.8,1.5
		c0.2,0.3,0.6,0.5,0.8,0.8c0.3,0.4,0.6,0.5,1,0.6c0.2,0.1,0.5,0.1,0.7,0.2c0.5,0.2,1,0.5,1.6,0.4c0.1,0,0.2,0,0.3,0
		c0.8,0.1,1.5,0.1,2.3,0c0.1,0,0.2-0.1,0.3-0.2c-0.1,0-0.2-0.1-0.3-0.1c-0.8-0.1-1.6-0.1-2.4-0.2c-0.8-0.1-1.5-0.4-2.3-0.7
		c-0.2-0.1-0.5-0.2-0.6-0.3c-0.5-0.5-1-1-1.3-1.7c-0.5-0.9-0.8-1.9-0.9-2.9c0-0.2,0-0.5,0-0.7c-0.1-0.9,0.2-1.7,0.4-2.5
		c0.2-0.5,0.5-0.9,0.6-1.4c0.1-0.5,0.4-1,0.1-1.5C46,79,46,78.9,45.9,78.8c-0.2,0-0.3,0-0.5,0c0,0,0,0.1,0,0.1
		c0.3,0.6,0.2,1.1,0.1,1.7c-0.1,0.6-0.4,1.1-0.6,1.6c0,0.1-0.1,0.2-0.1,0.3c-0.3,0.6-0.5,1.2-0.4,1.8c0,0.1,0,0.3-0.1,0.5"/>
	<path class="st2" d="M45.7,79c0.4-0.1,0.8-0.2,1.2-0.3c0.8-0.1,1.6-0.2,2.4-0.2c1.2-0.1,2.4-0.1,3.6-0.1c0.1,0,0.3-0.1,0.4-0.1
		c0.5-0.1,1.1-0.2,1.6-0.3c0.4-0.1,0.9,0,1.3-0.1c0.5-0.1,1.1-0.3,1.6-0.4c0.4-0.1,0.8-0.3,1.2-0.4c0.5-0.2,1.1-0.4,1.6-0.6
		c0.3-0.1,0.6-0.3,0.9-0.6c0.3-0.3,0.5-0.6,0.8-0.9c0.2-0.2,0.2-0.4,0.1-0.7c-0.1-0.3-0.1-0.5-0.2-0.8c-0.1-0.6-0.2-1.2-0.3-1.8
		c-0.1-0.6-0.2-1.2-0.3-1.8c-0.1-0.8-0.2-1.6-0.4-2.3c-0.1-0.5-0.2-1.1-0.3-1.6c-0.1-0.9-0.3-1.9-0.4-2.8c0-0.1,0-0.2-0.1-0.3
		c-0.2-0.6-0.5-1.3-0.5-2c0-0.7-0.1-1.4-0.2-2c-0.1-1.1-0.3-2.1-0.5-3.2c-0.1-0.6-0.1-1.2-0.2-1.8c-0.1-0.5-0.4-1-0.5-1.6
		c-0.2-0.9-0.3-1.9-0.4-2.8c0-1.1-0.4-2-0.8-2.9c-0.3-0.9-0.6-1.9-0.4-2.9c0-0.1,0-0.2,0-0.3c0-0.4-0.4-1-0.7-0.9
		c-0.5,0-1.1,0-1.6,0.1c-0.7,0.1-1.4,0.3-2.2,0.5c-0.8,0.2-1.6,0.3-2.4,0.4c-0.1,0-0.2,0-0.3,0.1c-0.4,0.1-0.8,0.3-1.3,0.3
		c-1.2,0.1-2.5,0-3.7,0.2c-0.3,0-0.6,0.1-0.9,0.1c-0.3,0.1-0.7,0.2-1,0.2c-0.9,0.1-1.8,0.1-2.7,0.1c-0.2,0-0.6,0.2-0.7,0.1
		c-0.2-0.1-0.2-0.5-0.3-0.8C39.3,43.9,39,43.9,39,44c-0.1,0.1,0,0.3,0.1,0.4c0,0.1,0,0.2,0.1,0.3c0.3,1.3,0.1,2.5,0.3,3.8
		c0.2,1.2,0.3,2.4,0.3,3.6c0.1,1.3,0.1,2.7,0.2,4c0.1,1,0.1,2,0.2,3c0.1,0.6,0.2,1.3,0.2,1.9c0.1,0.7,0.1,1.4,0.2,2.1
		c0,0.5,0.1,1.1,0.1,1.6c0.1,0.8,0.2,1.6,0.3,2.5c0.1,1.5,0.3,3,0.4,4.5c0,0.1,0,0.1,0,0.2c0.2,1,0.6,2,0.6,3.1c0,0.4,0,0.8,0.1,1.3
		c0.1,0.7,0.2,1.4,0.3,2.2c0,0.3,0.1,0.5,0.1,0.8c0.5-0.1,0.9-0.2,1.3-0.2L45.7,79z"/>
	<path class="st3" d="M61.5,19.2c-0.2-0.1-0.6,0.2-0.6-0.3c0-0.1,0.1-0.3,0.2-0.4c0.4-0.2,0.8-0.3,1.2-0.4c0.9-0.3,1.7-0.6,2.6-0.8
		c0.1,0,0.1-0.1,0.2-0.1c1.1,0,2-0.5,3-0.7c0.3-0.1,0.6-0.1,0.9-0.2c0.4-0.1,0.8-0.3,1.2-0.5c0.3-0.2,0.5,0,0.6,0.2
		c0.1,0.2,0,0.5,0.1,0.7c-0.1,0-0.2,0-0.3,0c-0.2,0-0.4,0-0.6,0c-0.4,0.1-0.9,0.3-1.3,0.4c-0.8,0.2-1.5,0.4-2.3,0.6
		c-0.2,0.1-0.4,0.1-0.6,0.1c-0.9,0.2-1.8,0.5-2.7,0.8c-0.2,0.1-0.5,0.1-0.7,0.2c-0.1,0.1-0.2,0.3-0.2,0.4c0.2,0.7,0.4,1.4,0.7,2
		c0,0.1,0.1,0.2,0.2,0.2c0.3,0.1,0.4,0.5,0.3,0.6c-0.3,0.6,0.1,1.2,0.2,1.7c0.2,0.8,0.4,1.6,0.6,2.4c0.1,0.2,0.1,0.5,0.2,0.7
		c0.3,0.7,0.6,1.4,0.9,2.2c0.1,0.3,0.2,0.6,0.3,0.9c0,0.1,0.3,0.2,0.3,0.2c0.7-0.2,1.3-0.4,2-0.6c1.3-0.5,2.5-0.9,3.8-1.4
		c0.8-0.3,1.5-0.7,2.2-1.1c0.1,0,0.2-0.1,0.3-0.1c0.9-0.1,1.6-0.5,2.3-1.1c0.3-0.2,0.7-0.4,1-0.6c0.1,0,0.3,0,0.4,0.1
		c0.1,0.2,0.1,0.4,0.1,0.6c0,0.1-0.1,0.1-0.1,0.2c-0.6-0.3-0.9,0.3-1.4,0.4c-0.3,0.1-0.6,0.4-0.9,0.5c-0.4,0.2-0.8,0.2-1.1,0.4
		c-0.6,0.2-1.1,0.5-1.7,0.8c-0.4,0.2-0.9,0.3-1.3,0.5c-0.6,0.2-1.2,0.5-1.8,0.8c-0.3,0.1-0.6,0.3-0.8,0.4c-0.5,0.2-0.9,0.3-1.4,0.5
		c-0.6,0.3-1.2,0.5-1.9,0.8c-0.1,0-0.2,0.1-0.3,0.1c-0.1-0.4-0.2-0.7-0.3-1.2c-0.2,0.5-0.5,0.6-0.9,0.6c0,0-0.1,0-0.1,0
		c-0.5,0.7-1.4,0.6-2.1,0.8c-0.9,0.3-1.9,0.5-2.9,0.6c-1.1,0.1-2.1,0.1-3.2,0.1c-0.8,0-1.6-0.2-2.5-0.6c-0.2,0.5-0.4,1-0.5,1.5
		c-0.1,0.4-0.6,0.8-1,0.9c-0.4,0.1-0.7-0.2-0.7-0.6c0-0.1,0-0.2,0-0.3c0,0-0.1,0-0.1-0.1c-0.1,0.1-0.3,0.2-0.3,0.4
		c-0.3,0.7-0.8,1.3-1.6,1.5c-0.4,0.1-0.8,0.2-1.3,0.2c-0.4,0-0.6-0.4-0.4-0.7c0.6-0.8,0.8-1.8,1.1-2.8c0.1-0.3,0.3-0.5,0.4-0.8
		c0,0-0.1-0.1-0.1-0.1c-0.3,0.2-0.6,0.4-0.8,0.7c-0.6,0.7-1.1,1.4-1.6,2.1c-0.3,0.4-0.7,0.8-1.2,0.9c-0.3,0.1-0.6,0.3-1,0.3
		c-0.4,0.1-0.7-0.4-0.7-1c0.1-0.6,0.2-1.2,0.4-1.8c0.2-0.7,0.6-1.3,1.1-1.9c0.1-0.1,0.2-0.2,0.3-0.4c0.1-0.1,0.1-0.2,0.1-0.4
		c-0.1,0-0.3,0-0.4,0.1c-0.2,0.2-0.4,0.5-0.6,0.7c-0.4,0.7-0.7,1.5-1,2.2c-0.4,0.9-0.9,1.8-1.9,2.4c-0.5,0.3-1,0.7-1.7,0.5
		c-0.2-0.1-0.3-0.2-0.3-0.4c0-1.2,0-2.4,0.2-3.6c0.1-0.7,0.5-1.4,0.8-2.1c0.2-0.6,0.5-1.1,0.9-1.5c0.9-0.9,1.8-2,2.9-2.7
		c1-0.6,2-1.2,3.1-1.5c1.5-0.5,3-0.5,4.5-0.5c1.4,0,2.9,0,4.3,0c0.6,0,1.1-0.2,1.7-0.2c0.3,0,0.5,0.1,0.8,0.1c0.2,0,0.4,0,0.6,0
		c1-0.1,1.9-0.3,2.9-0.5c0.2,0,0.3-0.3,0.2-0.6c-0.2-0.6-0.4-1.3-0.6-2C61.7,19.7,61.6,19.5,61.5,19.2z M64.8,29.9
		c-0.2-0.6-0.5-1.2-0.7-1.8c-0.2-0.8-0.7-1.4-0.8-2.3c-0.1-0.8-0.4-1.6-0.6-2.4c-0.1-0.3-0.2-0.4-0.5-0.3c-0.2,0-0.5,0.1-0.7,0.1
		c-1,0.1-2,0.3-3,0.3c-1-0.1-1.9,0-2.8,0.1c-0.4,0.1-0.9,0.1-1.3,0.1c-0.4,0-0.8-0.1-1.3-0.2c-0.6,0-1.1,0-1.7,0
		c-1.4-0.1-2.7,0.1-4.1,0.5c-0.2,0.1-0.4,0.1-0.6,0.2c-0.4,0.2-0.7,0.3-1.1,0.5c-0.2,0.1-0.5,0.2-0.6,0.4c-0.9,0.7-1.8,1.4-2.6,2.2
		c-0.5,0.5-1,1-1.3,1.5c-0.4,0.7-0.7,1.5-0.9,2.2c-0.4,1.1-0.4,2.2-0.3,3.4c0,0.1,0.3,0.4,0.4,0.4c0.5-0.2,1-0.5,1.4-0.9
		c0.4-0.3,0.7-0.8,0.9-1.2c0.3-0.4,0.4-0.9,0.6-1.4c0.2-0.5,0.4-1,0.7-1.4c0.3-0.4,0.7-0.8,1.2-1.1c0.4-0.2,1-0.3,1.3-0.1
		c-0.1,0.3-0.2,0.6-0.3,0.9c0,0.1,0,0.1-0.1,0.2c-0.2,0.2-0.4,0.5-0.7,0.7c-1,0.9-1.3,2.1-1.5,3.4c-0.1,0.5,0.2,0.7,0.7,0.5
		c0.6-0.2,0.9-0.7,1.3-1.1c0.4-0.5,0.8-1,1.2-1.5c0.4-0.5,0.8-0.9,1.2-1.4c0.2-0.2,0.4-0.2,0.6-0.2c0.1,0,0.3,0.1,0.4,0
		c0.5-0.5,1.3-0.7,1.9-1c0.1-0.1,0.3,0,0.5,0c-0.1,0.2-0.1,0.4-0.3,0.5c-0.3,0.2-0.7,0.2-1,0.3c-0.6,0.2-1,0.5-1.2,1.1
		c-0.4,1-0.7,2-1.1,3.1c-0.1,0.2-0.1,0.4,0,0.5c0.1,0.1,0.4,0.1,0.5,0c0.6-0.2,1-0.7,1.3-1.2c0.4-0.6,0.6-1.3,0.9-2
		c0.2-0.4,0.5-0.6,1.1-0.4c-0.1,0.2-0.1,0.4-0.2,0.6c-0.2,0.5-0.3,1.1-0.5,1.6c0,0.1,0.1,0.3,0.2,0.4c0.2-0.1,0.4-0.1,0.5-0.3
		c0.2-0.7,0.4-1.4,0.6-2c0-0.1,0.1-0.3,0.2-0.4c0.1,0,0.4,0,0.4,0.1c0.2,0.4,0.7,0.5,1,0.5c1.4,0.1,2.8,0.1,4.2,0.1
		c0.4,0,0.7,0,1.1-0.1c0.7-0.2,1.3-0.4,2-0.6c0.6-0.2,1.2-0.4,1.8-0.6C63.9,30.4,64.4,30.1,64.8,29.9z"/>
	<path class="st1" d="M46.8,78.4c0.1,0.2,0.3,0.4,0.3,0.6c0,0.6,0,1.3,0,1.9c0,0.2-0.2,0.5-0.3,0.7c-0.2,0.4-0.3,0.7-0.4,1.1
		c-0.1,0.5-0.1,1-0.1,1.5c0,0.5,0.1,0.9,0.3,1.4c0.1,0.4,0.3,0.8,0.4,1.1c0,0,0.1,0,0.1,0.1c0,0.6,0.4,1,0.8,1.4
		c0.2,0.2,0.4,0.3,0.6,0.5c0.6,0.4,1.2,0.8,1.9,1.1c0.4,0.2,0.8,0.4,1.2,0.3c0.8-0.2,1.7-0.1,2.4-0.6c0.3-0.2,0.7-0.4,1-0.6
		c0.2-0.1,0.4-0.3,0.5-0.5c0.4-0.5,0.9-0.9,1.2-1.4c0.4-0.5,0.8-1.1,0.7-1.8c0-0.3,0.1-0.6,0.1-1c0.1-0.7-0.2-1.3-0.4-1.9
		c-0.3-0.8-0.5-1.6-0.9-2.4c-0.4-0.8-0.3-1.5-0.3-2.3c0-0.1,0.1-0.3,0.2-0.4c0,0,0.1,0,0.1,0.1c0,0.1,0,0.2,0,0.4
		c0,0.6,0,1.1,0.3,1.6c0.3,0.5,0.5,1.1,0.7,1.7c0.3,0.7,0.5,1.5,0.7,2.2c0.1,0.3,0.1,0.7,0.1,1.1c0,0.2-0.1,0.5-0.1,0.7
		c-0.1,1.2-0.7,2.1-1.6,2.9c-0.4,0.4-0.8,0.8-1.3,1.3c-0.3,0.3-0.6,0.5-0.9,0.7c-0.3,0.2-0.8,0.3-1.1,0.4c-0.4,0.1-0.8,0.2-1.2,0.2
		c-0.7-0.1-1.5-0.1-2.2-0.5c-0.5-0.3-1-0.5-1.4-0.9c-0.4-0.5-0.9-0.8-1.2-1.3c-0.2-0.3-0.4-0.7-0.6-1c-0.2-0.5-0.2-1.1-0.4-1.7
		c0-0.1-0.1-0.2-0.1-0.3c0-0.1-0.2-0.3-0.1-0.4c0.2-0.3,0-0.6,0-1c0-0.3,0.1-0.6,0.2-0.8c0.1-0.4,0.2-0.9,0.4-1.2
		c0.6-0.8,0.5-1.6,0.4-2.5c0-0.2,0-0.3,0-0.5C46.7,78.5,46.7,78.5,46.8,78.4z"/>
	<path class="st1" d="M45.4,36.9c0,0.2,0,0.4,0,0.7c0,0.6-0.1,1.2-0.1,1.8c0,0.7,0,1.4,0.1,2.1c0,0.4,0.1,0.9,0.6,1
		c0.1,0,0.2,0.2,0.3,0.4c-0.1,0.1-0.2,0.1-0.4,0.2c-0.1,0.1-0.2,0.1-0.4,0.2c-0.8-0.3-0.7-1-0.7-1.6c-0.1-0.8-0.1-1.7-0.1-2.5
		c0-0.7,0.2-1.4,0.4-2.1c0-0.1,0.1-0.2,0.2-0.3C45.3,36.8,45.4,36.8,45.4,36.9z"/>
	<path class="st1" d="M52.2,42.7c0-0.2-0.1-0.4-0.1-0.6c0-0.9,0-1.8-0.1-2.7c0-0.6-0.1-1.2-0.2-1.8c-0.1-0.3-0.2-0.6-0.3-0.8
		c-0.2-0.4-0.4-0.7-0.6-1c-0.1-0.1,0-0.3,0-0.5c0.1,0,0.3,0.1,0.3,0.1c0.2,0.3,0.5,0.5,0.6,0.8c0.3,0.8,0.7,1.5,0.7,2.4
		c-0.1,1.2,0,2.3,0.1,3.5c0,0.2-0.1,0.4-0.1,0.6C52.3,42.7,52.3,42.7,52.2,42.7z"/>
	<path class="st1" d="M57.1,78c0.1,0.1,0.1,0.2,0.2,0.4c0,0.5,0.1,1,0.1,1.5c0,0.6,0.2,1.1,0.6,1.5c0.4,0.5,0.7,1.1,1,1.6
		c0,0.1,0,0.2,0,0.2c-0.1,0-0.2,0.1-0.3,0c-0.1-0.1-0.2-0.2-0.3-0.4c-0.3-0.5-0.7-1-0.9-1.5c-0.2-0.4-0.3-0.8-0.4-1.2
		c-0.1-0.2-0.1-0.4-0.1-0.5c0,0,0-0.1,0-0.1c0.3-0.5,0.1-1,0.1-1.5C57,78,57,78,57.1,78z"/>
	<path class="st1" d="M58.9,83.9c0.7,0.7-0.6,5.1-1.8,5.6C58.3,87.8,59.1,86,58.9,83.9z"/>
	<path class="st1" d="M53.7,40c-0.1,0.7-0.2,1.5-0.3,2.2c0,0.1-0.1,0.2-0.2,0.2c-0.1-0.1-0.2-0.2-0.2-0.2c0-0.3,0-0.6,0-0.9
		c0-0.6,0.1-1.2,0.1-1.9c0-0.1,0.1-0.2,0.2-0.3c0.1,0.1,0.2,0.1,0.2,0.2C53.6,39.6,53.7,39.8,53.7,40C53.7,40,53.7,40,53.7,40z"/>
	<path class="st1" d="M45.8,39.2c0-0.3-0.1-0.5,0-0.8c0.1-0.7,0.2-1.3,0.3-2c0-0.1,0-0.2,0-0.2c0.1-0.1,0.3-0.1,0.5-0.2
		c0,0.1,0,0.3,0,0.4c-0.1,0.3-0.2,0.7-0.3,1c-0.1,0.3-0.1,0.7-0.2,1c0,0.3-0.1,0.5-0.1,0.8C45.9,39.2,45.9,39.2,45.8,39.2z"/>
	<path class="st1" d="M53.2,38.3c-0.2-0.5-0.4-1-0.7-1.6c0.3-0.1,0.5,0,0.6,0.3c0.1,0.3,0.2,0.7,0.2,1c0,0.1,0,0.2-0.1,0.3
		C53.3,38.3,53.3,38.3,53.2,38.3z"/>
	<path d="M61.4,88.5c0-0.1,0-0.1,0-0.2"/>
	<path class="st1" d="M51.9,35.2c0.1,0.3,0.3,0.5,0.5,0.9c-0.2-0.1-0.5-0.2-0.5-0.3c-0.1-0.2-0.1-0.4-0.1-0.6
		C51.8,35.2,51.9,35.2,51.9,35.2z"/>
	<path class="st1" d="M51.9,35c-0.1,0.1-0.3,0.1-0.3,0.1c-0.1-0.1-0.3-0.2-0.4-0.4c0,0,0.1-0.2,0.1-0.1C51.5,34.7,51.7,34.8,51.9,35
		z"/>
	<path class="st4" d="M64.8,29.9c-0.5,0.2-0.9,0.5-1.3,0.7c-0.6,0.2-1.2,0.4-1.8,0.6c-0.7,0.2-1.3,0.4-2,0.6
		c-0.4,0.1-0.7,0.1-1.1,0.1c-1.4,0-2.8,0-4.2-0.1c-0.3,0-0.8-0.1-1-0.5C53.3,31.2,49.1,31,49,31c-0.1,0,3.8,0.4,3.7,0.5
		c-0.2,0.7-0.4,1.4-0.6,2c0,0.1-0.3,0.2-0.5,0.3c-0.1-0.2-0.2-0.3-0.2-0.4c0.1-0.5,0.3-1.1,0.5-1.6c0.1-0.2,0.1-0.4,0.2-0.6
		c-0.5-0.2-0.9,0-1.1,0.4c-0.3,0.7-0.6,1.4-0.9,2c-0.3,0.5-0.7,1-1.3,1.2c-0.2,0.1-0.4,0.1-0.5,0c-0.1,0-0.1-0.3,0-0.5
		c0.4-1,0.7-2.1,1.1-3.1c0.2-0.5,0.7-0.9,1.2-1.1c0.3-0.1,0.7-0.2,1-0.3c0.1-0.1,0.2-0.3,0.3-0.5c-0.2,0-0.3-0.1-0.5,0
		c-0.6,0.3-1.4,0.4-1.9,1c-0.1,0.1-0.3,0-0.4,0c-0.2,0-0.4-0.1-0.6,0.2c-0.4,0.5-0.8,0.9-1.2,1.4c-0.4,0.5-0.8,1-1.2,1.5
		c-0.4,0.5-0.7,0.9-1.3,1.1c-0.5,0.2-0.7,0-0.7-0.5c0.1-1.3,0.5-2.5,1.5-3.4c0.2-0.2,0.5-0.4,0.7-0.7c0,0,0.1-0.1,0.1-0.2
		c0.1-0.3,0.2-0.6,0.3-0.9c-0.3-0.3-0.9-0.2-1.3,0.1c-0.5,0.3-0.9,0.6-1.2,1.1c-0.3,0.4-0.4,0.9-0.7,1.4c-0.2,0.5-0.4,1-0.6,1.4
		c-0.3,0.4-0.5,0.9-0.9,1.2c-0.4,0.4-0.9,0.6-1.4,0.9c-0.1,0-0.4-0.2-0.4-0.4c-0.1-1.1,0-2.3,0.3-3.4c0.3-0.8,0.5-1.5,0.9-2.2
		c0.3-0.6,0.8-1.1,1.3-1.5c0.8-0.8,1.7-1.5,2.6-2.2c0.2-0.2,0.4-0.2,0.6-0.4c0.4-0.2,0.7-0.4,1.1-0.5c0.2-0.1,0.4-0.2,0.6-0.2
		c1.3-0.4,2.7-0.6,4.1-0.5c0.6,0,1.1,0,1.7,0c0.4,0,0.8,0.1,1.3,0.2c0.4,0,0.9,0,1.3-0.1c0.9-0.1,1.9-0.2,2.8-0.1c1,0.1,2-0.2,3-0.3
		c0.2,0,0.5-0.1,0.7-0.1c0.3,0,0.4,0,0.5,0.3c0.2,0.8,0.5,1.6,0.6,2.4c0.1,0.8,0.5,1.5,0.8,2.3C64.4,28.7,64.6,29.3,64.8,29.9z"/>
	<path class="st5" d="M42.7,49.3c0.5,0,0.6,0,0.6,0.5c0,0.6,0,1.2,0.2,1.7c0.1,0.7,0.4,1.4,0.6,2.1c0.3,1,0.5,1.9,0.7,2.9
		c0.2,1.1,0.5,2.1,0.6,3.2c0.1,0.6,0.2,1.3,0.3,1.9c0.2,0.7,0.4,1.4,0.5,2.2c0.1,0.7,0.1,1.4,0.1,2.1c0,1.5,0.1,3,0.1,4.5
		c0,0.6,0,1.2,0,1.9c0,0.2,0,0.4-0.3,0.3c-0.1-0.1-0.2-0.3-0.3-0.4c0-0.1,0-0.2,0-0.3c0-0.2-0.1-0.5,0-0.7c0.2-0.7,0.2-1.3,0-2
		c0-0.1,0-0.1,0-0.2c0.3-0.6-0.1-1.3-0.1-1.9c0-0.7-0.1-1.3-0.1-2c0-0.4,0-0.7,0-1.1c-0.1-0.6-0.2-1.1-0.3-1.7
		c-0.1-0.9-0.2-1.8-0.4-2.6c-0.1-0.7-0.3-1.4-0.5-2.2c-0.1-0.7-0.2-1.3-0.4-2c-0.1-0.6-0.3-1.2-0.5-1.8c-0.1-0.3-0.1-0.5-0.2-0.8
		c-0.1-0.5-0.3-1-0.5-1.6C42.7,50.7,42.6,50,42.7,49.3z"/>
	<path class="st5" d="M55.8,69.9c0.1,0.6,0.2,1.2,0.3,1.8c0,0.3,0.1,0.5,0.1,0.8c0,0.2,0,0.4-0.3,0.4c-0.2,0-0.4-0.1-0.4-0.4
		c0-0.5-0.1-1.1-0.1-1.6c-0.1-0.8-0.2-1.6-0.4-2.4c-0.2-0.5-0.2-1.1-0.3-1.6c-0.3-1-0.1-2-0.3-3.1c-0.2-0.8-0.3-1.6-0.5-2.4
		c-0.1-0.8-0.3-1.6-0.4-2.4c-0.1-0.6-0.3-1.2-0.5-1.8c-0.1-0.5-0.1-0.9-0.2-1.4c-0.1-0.6-0.4-1.1-0.5-1.7c-0.2-0.6-0.4-1.1-0.5-1.7
		c-0.2-0.6-0.3-1.3-0.4-1.9c0-0.2,0-0.3,0-0.5c0.2,0.1,0.5,0.2,0.5,0.4c0.2,0.5,0.2,1,0.3,1.5c0.1,0.5,0.3,1,0.5,1.6
		c0,0.1,0.1,0.3,0.1,0.4c0.1,0.6,0.3,1.2,0.4,1.9c0.2,0.9,0.4,1.7,0.6,2.6c0.1,0.5,0.2,1,0.3,1.5c0.2,0.7,0.3,1.3,0.5,1.9
		c0.1,0.3,0.1,0.5,0.1,0.8c0.1,0.7,0.2,1.5,0.3,2.2c0.1,0.6,0.2,1.2,0.3,1.8c0.1,0.4,0.1,0.8,0.1,1.1c0.1,0.7,0.3,1.4,0.4,2.1
		C55.8,69.9,55.8,69.9,55.8,69.9z"/>
	<path class="st5" d="M44.9,49c0.7,0.1,1,0.5,1.1,1.1c0.1,0.9,0.3,1.7,0.4,2.5c0.1,0.8,0.3,1.6,0.4,2.4c0.2,1.1,0.4,2.2,0.6,3.2
		c0.1,0.4,0.1,0.7,0.2,1.1c0.1,0.8,0.3,1.6,0.5,2.5c0.1,0.6,0.2,1.3,0.2,1.9c0.1,1,0.3,2,0.4,3c0.1,1,0.2,2,0.3,3
		c0.1,1.1,0.3,2.2,0.5,3.3c0,0.2,0.1,0.4-0.2,0.5c-0.3,0.1-0.4-0.1-0.4-0.4c-0.1-1.1-0.2-2.2-0.4-3.3c-0.1-1.1-0.2-2.3-0.4-3.4
		c-0.1-0.8-0.3-1.6-0.5-2.4c-0.1-0.6-0.2-1.1-0.2-1.7c-0.1-0.8-0.3-1.7-0.4-2.5c0,0,0-0.1,0-0.1c0.1-0.9-0.3-1.6-0.4-2.5
		c-0.1-0.9-0.2-1.8-0.4-2.6c-0.2-0.9-0.4-1.9-0.6-2.8c-0.1-0.6-0.2-1.1-0.3-1.7c-0.1-0.3-0.2-0.5-0.3-0.8C45,49.3,44.9,49.2,44.9,49
		z"/>
	<path class="st5" d="M48.6,49.9c0.9,0,1,0.7,1.2,1.2c0.2,0.8,0.3,1.7,0.5,2.5c0.1,0.4,0.2,0.9,0.3,1.3c0,0.1,0,0.2,0.1,0.4
		c0.1,0.5,0.2,1,0.3,1.5c0.1,0.3,0.2,0.7,0.2,1c0.2,0.9,0.4,1.9,0.6,2.8c0.1,0.4,0.1,0.8,0.2,1.1c0.1,0.4,0.2,0.8,0.2,1.2
		c0.1,0.5,0,1,0.1,1.4c0.4,1.3,0,2.7,0.3,4.1c0,0.2-0.2,0.6-0.4,0.6c-0.1,0-0.2-0.3-0.2-0.4c0-0.7,0-1.4,0-2c-0.1-1.3-0.2-2.7-0.4-4
		c-0.1-1.1-0.4-2.2-0.6-3.2c-0.1-0.6-0.2-1.3-0.3-1.9c-0.1-0.7-0.3-1.5-0.5-2.2c-0.2-0.8-0.2-1.6-0.4-2.4c-0.2-0.8-0.4-1.6-0.6-2.3
		C48.9,50.3,48.7,50.1,48.6,49.9z"/>
</g>
<path class="st6" d="M23.3,15"/>
<path class="st6" d="M15.4,26.2"/>
<path class="st6" d="M14.9,27.3"/>
<path class="st6" d="M24.3,14"/>
<path class="st6" d="M23.3,15"/>
<path class="st7" d="M28.5,20.3c0,5.4-4.4,9.7-9.7,9.7S9,25.6,9,20.3s4.4-9.7,9.7-9.7S28.5,14.9,28.5,20.3"/>
<g>
	<path class="st6" d="M27.3,13"/>
	<path class="st6" d="M19.4,24.2"/>
	<path class="st6" d="M18.9,25.3"/>
	<path class="st6" d="M28.3,12"/>
	<path class="st6" d="M27.3,13"/>
	<g>
		<path class="st8" d="M21.6,23.6c0.1,0.1,0.2,0.2,0.2,0.4c0,0.2-0.1,0.3-0.2,0.4s-0.2,0.1-0.4,0.1h-4.3c-0.2,0-0.3,0-0.4-0.1
			s-0.2-0.2-0.2-0.4c0-0.1,0.1-0.3,0.2-0.4l2.7-2.9c0.7-0.8,1.1-1.5,1.1-2.1c0-0.4-0.1-0.8-0.4-1.1c-0.3-0.3-0.6-0.4-1.1-0.4
			c-0.3,0-0.6,0.1-0.9,0.3s-0.5,0.4-0.7,0.7c-0.1,0.2-0.3,0.3-0.5,0.3c-0.1,0-0.3-0.1-0.4-0.2s-0.2-0.2-0.2-0.4c0-0.1,0-0.2,0.1-0.3
			c0.1-0.1,0.1-0.2,0.3-0.3c0.3-0.4,0.6-0.6,1-0.8c0.4-0.2,0.8-0.3,1.2-0.3c0.5,0,1,0.1,1.4,0.3c0.4,0.2,0.7,0.5,0.9,0.9
			c0.2,0.4,0.3,0.8,0.3,1.3c0,0.9-0.5,1.9-1.5,3l-1.8,2h3C21.3,23.5,21.5,23.5,21.6,23.6z"/>
	</g>
</g>
<g class="st9">
	<ellipse class="st10" cx="112" cy="16.5" rx="3" ry="4.5"/>
	<ellipse class="st11" cx="121.5" cy="17" rx="3.5" ry="5"/>
</g>
</svg>
