<?xml version="1.0" encoding="utf-8"?>
<!-- Generator: Adobe Illustrator 22.1.0, SVG Export Plug-In . SVG Version: 6.00 Build 0)  -->
<svg version="1.1" id="Capa_1" xmlns="http://www.w3.org/2000/svg" xmlns:xlink="http://www.w3.org/1999/xlink" x="0px" y="0px"
	 viewBox="0 0 100 100" style="enable-background:new 0 0 100 100;" xml:space="preserve">
<style type="text/css">
	.st0{display:none;fill:#666666;}
	.st1{fill:none;stroke:#000000;stroke-miterlimit:10;}
	.st2{opacity:0.72;stroke:#000000;stroke-miterlimit:10;}
	.st3{fill:#FFFFFF;}
	.st4{display:none;}
	.st5{display:inline;fill:none;stroke:#000000;stroke-miterlimit:10;}
	.st6{opacity:0.51;}
	.st7{fill:#62B7B1;}
	.st8{fill:#00FFFF;}
	.st9{opacity:0.72;}
	.st10{fill:#FF931E;}
</style>
<rect x="-8" y="-1" class="st0" width="112" height="109"/>
<rect x="-35.8" y="-3.6" style="fill:none;" width="13.9" height="10.1"/>
<text transform="matrix(1 0 0 1 -35.75 5.7373)" style="display:none;fill:#FFFFFF; font-family:'Bitter-Bold'; font-size:12px;">1</text>
<path class="st1" d="M23.3,15"/>
<path class="st1" d="M15.4,26.2"/>
<path class="st1" d="M14.9,27.3"/>
<path class="st1" d="M24.3,14"/>
<path class="st1" d="M23.3,15"/>
<path class="st2" d="M28.5,20.3c0,5.4-4.4,9.7-9.7,9.7S9,25.6,9,20.3s4.4-9.7,9.7-9.7S28.5,14.9,28.5,20.3"/>
<g>
	<path class="st1" d="M26.3,13"/>
	<path class="st1" d="M18.4,24.2"/>
	<path class="st1" d="M17.9,25.3"/>
	<path class="st1" d="M27.3,12"/>
	<path class="st1" d="M26.3,13"/>
	<g>
		<path class="st3" d="M21.4,21.2c0.1,0.1,0.2,0.2,0.2,0.4c0,0.2-0.1,0.3-0.2,0.4c-0.1,0.1-0.2,0.1-0.4,0.1h-0.6V24
			c0,0.2-0.1,0.3-0.2,0.4c-0.1,0.1-0.2,0.2-0.4,0.2c-0.2,0-0.3-0.1-0.4-0.2c-0.1-0.1-0.2-0.2-0.2-0.4v-1.8h-3.3
			c-0.1,0-0.3-0.1-0.4-0.2c-0.1-0.1-0.2-0.2-0.2-0.4c0-0.1,0-0.3,0.1-0.4l3.8-4.8c0.1-0.1,0.1-0.1,0.2-0.2s0.2-0.1,0.3-0.1
			c0.2,0,0.3,0.1,0.4,0.2c0.1,0.1,0.2,0.2,0.2,0.4v4.4H21C21.1,21.1,21.3,21.1,21.4,21.2z M16.9,21.1h2.3v-3L16.9,21.1z"/>
	</g>
</g>
<g class="st4">
	<path class="st5" d="M-10.7,11"/>
	<path class="st5" d="M-18.6,22.2"/>
	<path class="st5" d="M-19.1,23.3"/>
	<path class="st5" d="M-9.7,10"/>
	<path class="st5" d="M-10.7,11"/>
	<rect x="-22.4" y="13.7" style="display:inline;fill:none;" width="9.4" height="12.3"/>
	
		<text transform="matrix(1 0 0 1 -22.4438 22.5386)" style="display:inline;fill:#FFFFFF; font-family:'Quicksand-Medium'; font-size:12px;">4</text>
</g>
<g>
	<g class="st6">
		<g>
			<path class="st7" d="M61.7,54.3c0.7,0.8,1.4,1.8,2.3,2.4c0.9,0.6,1.9,1.1,2.8,1.6c-0.1-0.1-0.1-0.3-0.2-0.4
				c-0.8,2.4-3.2,2.7-5.5,2.6c-0.5,0-0.5,0.7,0,0.8c2.7,0.1,5.3-0.4,6.2-3.2c0.1-0.2,0-0.3-0.2-0.4c-0.9-0.5-1.8-0.9-2.7-1.5
				c-0.9-0.6-1.6-1.6-2.2-2.4C62,53.4,61.4,53.9,61.7,54.3L61.7,54.3z"/>
		</g>
	</g>
	<g>
		<g>
			<path class="st8" d="M62.9,54.5c-2-1.8-3.2-4.1-3.7-6.8c-0.1-0.5-0.8-0.3-0.7,0.2c0.5,2.7,1.8,5.2,3.9,7.1
				C62.7,55.3,63.2,54.8,62.9,54.5L62.9,54.5z"/>
		</g>
	</g>
</g>
<path class="st9" d="M79.8,49.4c0.1,0.2,0.1,0.5,0.2,0.8c0.1,0.1,0.2,0.2,0.3,0.4C80.3,50.1,80.1,49.8,79.8,49.4z"/>
<path class="st9" d="M79.5,48.8c0,0,0,0.1,0,0.1c-0.1,0-0.1,0-0.1,0c0.1,0.2,0.2,0.3,0.4,0.5C79.7,49.1,79.6,48.9,79.5,48.8z"/>
<path class="st9" d="M81.9,52.6c0.1-0.1,0.2-0.3,0.4-0.4c-0.1-0.2-0.3-0.5-0.4-0.8c-0.1-0.3-0.4-0.4-0.6-0.6
	c-0.3-0.3-0.6-0.7-0.8-1.1c-0.1-0.3-0.1-0.6-0.2-0.9c-0.1-0.4-0.3-0.8-0.5-1.1c-0.4-1-0.9-2.1-1.3-3.1c-0.3-0.6-0.5-1.3-0.8-1.9
	c-0.2-0.7-0.4-1.3-0.7-2c-0.2-0.6-0.6-1.1-0.8-1.7c-0.2-0.4-0.2-0.8-0.4-1.1c-0.5-1.1-1.1-2.3-1.6-3.4c-0.2-0.4-0.3-0.9-0.5-1.3
	c-0.3-0.6-0.5-1.3-0.8-1.9c-0.2-0.5-0.4-1.1-0.5-1.6c-0.3-1-0.6-2-0.9-3c-0.2-0.5-0.2-1.1-0.4-1.7c-0.2-0.5-0.5-0.9-0.7-1.3
	c-0.1-0.1-0.3-0.1-0.4-0.1c0,0.2,0,0.4,0,0.5c0.1,0.4,0.4,0.7,0.5,1.1c0.2,0.7,0.4,1.5,0.6,2.3c0.3,0.9,0.6,1.8,0.9,2.7
	c0.2,0.5,0.3,1,0.5,1.5c0.4,0.9,0.8,1.8,1.2,2.7c0.4,0.9,0.7,1.8,1.2,2.6c0.6,1.4,1.3,2.7,1.8,4.1c0.3,0.8,0.5,1.5,0.8,2.2
	c0.3,0.9,0.7,1.7,1.1,2.6c0.2,0.5,0.5,1,0.7,1.6c0.2,0.4,0.3,0.9,0.5,1.3c0.1,0.1,0.2,0.3,0.3,0.6c0.3,0.4,0.6,0.8,0.5,1.2
	c0.1,0.2,0.2,0.3,0.4,0.5c0,0,0,0.1,0,0.1c0.6,0.2,0.7,0.8,0.8,1.4C81.6,52.5,81.7,52.5,81.9,52.6C81.8,52.5,81.8,52.5,81.9,52.6z"
	/>
<path class="st9" d="M43,47.7c0.3,0.2,0.6,0.5,1,0.6c0.8,0.2,1,0.9,1.4,1.5c0.6,1,0,1.8-0.5,2.7c-0.5,0.8-1.2,0.9-2,0.8
	c-0.8-0.1-2.2-1.2-2.4-1.9c-0.1-0.3-0.1-0.6-0.2-0.9c-0.1,0-0.1,0-0.2,0c0,0.2,0.1,0.4,0.1,0.6c0,0.1-0.1,0.2-0.1,0.3
	c-0.1-0.1-0.2-0.1-0.3-0.2c-0.7-1.1-0.2-2.7,0.9-3.3c-0.2,0-0.5,0-0.6,0.1c-0.4,0.2-0.9,0.4-1.2,0.7c-0.4,0.4-0.5,0.4-0.7-0.1
	C36.9,49,36.3,50,35.6,51c-0.2,0.2-0.4,0.4-0.5,0.2c-0.1-0.1-0.1-0.4,0-0.6c0.2-0.4,0.4-0.7,0.7-1.1c0.4-0.4,0.8-0.9,1.2-1.3
	c0.3-0.2,0.6-0.4,0.9-0.5c0.7-0.3,1.5-0.6,2.3-0.8c0.9-0.3,1.9-0.6,2.9-0.8c0.4-0.1,0.9,0,1.4,0.1c0.3,0,0.6,0.1,0.8,0.2
	c0.3,0.2,0.6,0.5,0.9,0.8c0.3,0.3,0.1,0.5-0.1,0.7c-0.1,0.1-0.4,0-0.6-0.1c-0.2-0.1-0.4-0.2-0.6-0.2c-0.2-0.1-0.5-0.1-0.8-0.2
	C43.7,47.3,43.2,47.4,43,47.7z M44.5,50.8c-0.1-1.1-0.3-1.2-0.8-1.9c-0.1-0.2-0.5-0.3-0.7-0.4c-0.5-0.2-0.9-0.2-1.4,0.2
	c-0.6,0.4-0.8,0.7-0.6,1.3c0.2,0.5,0.4,1,0.5,1.5c0.2,0.8,1.6,1.3,2.3,1c0.2-0.1,0.4-0.2,0.4-0.4C44.4,51.7,44.5,51.2,44.5,50.8z"/>
<path class="st9" d="M68,39.7c0.3,0.2,0.6,0.5,1,0.6c0.8,0.2,1,0.9,1.4,1.5c0.6,1,0,1.8-0.5,2.7c-0.5,0.8-1.2,0.9-2,0.8
	c-0.8-0.1-2.2-1.2-2.4-1.9c-0.1-0.3-0.1-0.6-0.2-0.9c-0.1,0-0.1,0-0.2,0c0,0.2,0.1,0.4,0.1,0.6c0,0.1-0.1,0.2-0.1,0.3
	c-0.1-0.1-0.2-0.1-0.3-0.2c-0.7-1.1-0.2-2.7,0.9-3.3c-0.2,0-0.5,0-0.6,0.1c-0.4,0.2-0.9,0.4-1.2,0.7c-0.4,0.4-0.5,0.4-0.7-0.1
	C61.9,41,61.3,42,60.6,43c-0.2,0.2-0.4,0.4-0.5,0.2c-0.1-0.1-0.1-0.4,0-0.6c0.2-0.4,0.4-0.7,0.7-1.1c0.4-0.4,0.8-0.9,1.2-1.3
	c0.3-0.2,0.6-0.4,0.9-0.5c0.7-0.3,1.5-0.6,2.3-0.8c0.9-0.3,1.9-0.6,2.9-0.8c0.4-0.1,0.9,0,1.4,0.1c0.3,0,0.6,0.1,0.8,0.2
	c0.3,0.2,0.6,0.5,0.9,0.8c0.3,0.3,0.1,0.5-0.1,0.7c-0.1,0.1-0.4,0-0.6-0.1c-0.2-0.1-0.4-0.2-0.6-0.2c-0.2-0.1-0.5-0.1-0.8-0.2
	C68.7,39.3,68.2,39.4,68,39.7z M69.5,42.8c-0.1-1.1-0.3-1.2-0.8-1.9c-0.1-0.2-0.5-0.3-0.7-0.4c-0.5-0.2-0.9-0.2-1.4,0.2
	c-0.6,0.4-0.8,0.7-0.6,1.3c0.2,0.5,0.4,1,0.5,1.5c0.2,0.8,1.6,1.3,2.3,1c0.2-0.1,0.4-0.2,0.4-0.4C69.4,43.7,69.5,43.2,69.5,42.8z"/>
<path class="st9" d="M35.6,66.3c-0.1,0.4-0.2,0.9-0.2,1.3c0,0.1,0.1,0.3,0.1,0.4c0,0.4,0,0.8,0,1.2c0,0.1,0,0.3,0,0.4
	c0,0.3,0,0.6,0,1c0,0.2-0.1,0.4-0.1,0.6c0.1,1.2-0.3,2.3-0.5,3.5c-0.1,0.5-0.2,1-0.2,1.5c0,0.3-0.2,0.3-0.4,0.3
	c-0.3,0-0.4-0.2-0.3-0.4c0.2-0.7,0.3-1.5,0.5-2.2c0.1-0.6,0.3-1.2,0.3-1.8c0.1-1,0-1.9,0.1-2.9c0-0.9,0.1-1.8,0.1-2.6
	c0-0.7,0-1.4-0.2-2.1c-0.2-1-0.5-1.9-0.8-2.8c-0.3-0.8-0.9-1.3-1.5-1.8c-0.4-0.3-0.8-0.4-1.1-0.7c-0.2-0.1-0.4-0.3-0.6-0.4
	c-1-0.5-2-0.9-3-1.4c-0.6-0.3-1.2-0.6-1.8-0.9c-0.1-0.1-0.3,0-0.5-0.1c-0.1-0.1-0.4-0.3-0.3-0.4c0-0.2,0.2-0.4,0.5-0.3
	c0.2,0.1,0.5,0.2,0.7,0.3c0.6,0.2,1.1,0.5,1.7,0.7c1.2,0.5,2.4,1.1,3.6,1.6c0.2,0.1,0.3,0.2,0.4,0.3c1.5,0.8,2.4,2.1,2.8,3.7
	C35.2,63.7,35.6,65,35.6,66.3z"/>
<path d="M71.4,23.1"/>
<path d="M86.8,72.3"/>
<path d="M53.4,54.3"/>
<path d="M24.4,54.6c0,0-0.1,0.1-0.1,0.1"/>
<path d="M58.6,56.9"/>
<g class="st9">
	<g>
		<path d="M81.4,52c2.7,6.5,3.1,13.6,1,20.3c-2.4,7.9-8.1,10.1-15.8,10.9c-12.6,1.3-24.6-1.4-35-8.7c-0.4-0.3-0.8,0.4-0.4,0.6
			c11.9,8.5,27.1,11.3,41.4,7.9c13.2-3.2,13.7-21,9.5-31.3C81.9,51.4,81.2,51.6,81.4,52L81.4,52z"/>
	</g>
</g>
<g class="st9">
	<g>
		<path d="M25.3,53.7c6.5,4.9,14.4,5.5,22.2,4.2c10.9-1.8,21.7-5.3,32.5-8c0.5-0.1,0.3-0.8-0.2-0.7c-9,2.3-18,4.8-27,6.9
			c-9.2,2.2-19.1,3.1-27.1-3C25.3,52.7,24.9,53.4,25.3,53.7L25.3,53.7z"/>
	</g>
</g>
<g class="st9">
	<g>
		<path d="M79.5,56.9c-1.8,0.9-3.2,2.3-5.1,3.2c-3.6,1.7-6.7,1.9-10.4,3.1c-1.9,0.6-3.3,2.8-5.5,3.5c-3.1,0.9-8.8,1.2-12,0.5
			c-0.5-0.1-0.7,0.6-0.2,0.7c3.1,0.7,6.8,0.3,10-0.1c3.6-0.4,4.6-1.8,7.4-3.4c2.4-1.3,5.8-1.4,8.5-2.5c2.8-1.2,5.1-2.9,7.7-4.3
			C80.3,57.3,79.9,56.7,79.5,56.9L79.5,56.9z"/>
	</g>
</g>
<g class="st9">
	<g>
		<path d="M79.9,63.7c-2.2,2-4.3,3.7-6.9,5.2c-2.7,1.6-4.8,1.2-7.6,1.7c-0.7,0.1-1.4,0.6-2.1,0.9c-4,1.9-8.6,2.6-12.9,0.7
			c-0.4-0.2-0.8,0.5-0.4,0.6c2.7,1.2,5.6,1.5,8.6,1.1c2.7-0.4,4.8-2.1,7.4-2.5c2.4-0.4,4.1-0.2,6.4-1.4c3.1-1.5,5.6-3.5,8.1-5.9
			C80.8,63.9,80.3,63.3,79.9,63.7L79.9,63.7z"/>
	</g>
</g>
<g>
	<g>
		<path class="st10" d="M57,80.1c3.1-7.1,2.5-14.8-1.7-21.3c-0.2-0.2-0.6-0.3-0.7,0.1c-0.2,1.5,0.7-0.1,2.2,1.2
			c0.4,0.3,0.9-0.2,0.5-0.5c-0.8-0.6-1.6-1.2-2.4-1.9c-0.2-0.2-0.6-0.1-0.6,0.3c0,1,0,2.1-0.1,3.1c0,0.4,0.7,0.5,0.7,0.1
			c0.3-1.9,0.5-0.4,1.1,0.4c1.2,1.7,1.7,4.4,2,6.4c0.6,4.1,0,8-1.7,11.8C56.2,80.1,56.8,80.5,57,80.1L57,80.1z"/>
	</g>
</g>
<g class="st9">
	<g>
		<path d="M56.6,31.7c0,0.6,0.1,1,0.3,1.5c0.1,0.2,0.3,0.2,0.5,0.1c2.1-1,4.4-1,6.6-1c1.6,0,3.8,0.4,5.3-0.2
			c0.2-0.1,0.3-0.2,0.3-0.4c0.3-2.8-10.8-1.6-12.5-0.9c-0.4,0.2-0.1,0.8,0.4,0.6c2.1-0.9,4.7-0.6,7-0.6c0.8,0,3-0.2,3.5,0.2
			c0.8,0.6-0.8,0.3-1.4,0.3c-2,0-4,0-6,0.2c-0.7,0.1-1.4,0.1-2.1,0.3c-0.8,0.3-1.1,0.8-1.2-0.3C57.3,31.2,56.6,31.2,56.6,31.7
			L56.6,31.7z"/>
	</g>
</g>
<g class="st9">
	<g>
		<path d="M42,35.1c0.2,0.8,0.6,1.1-0.4,1.8c-0.5,0.3-1.6,0.5-2.2,0.7c-1,0.3-1.7,0.7-2.5,1.2c-2.2,1.4-4.3,2.8-6.1,4.6
			c0.2,0.1,0.4,0.2,0.6,0.4c0.6-1.6,2.5-3.1,3.7-4.2c1.3-1.2,3.3-2.4,5-3c0.5-0.2,0.3-0.9-0.2-0.7c-1.8,0.6-3.9,1.9-5.3,3.2
			c-1.3,1.3-3.2,2.8-3.9,4.6c-0.1,0.4,0.4,0.6,0.6,0.4c2.6-2.4,5.7-4.9,9.1-5.9c2.4-0.7,3.1-0.6,2.4-3.1
			C42.6,34.4,41.8,34.6,42,35.1L42,35.1z"/>
	</g>
</g>
</svg>
