<?xml version="1.0" encoding="utf-8"?>
<!-- Generator: Adobe Illustrator 22.1.0, SVG Export Plug-In . SVG Version: 6.00 Build 0)  -->
<svg version="1.1" id="Capa_1" xmlns="http://www.w3.org/2000/svg" xmlns:xlink="http://www.w3.org/1999/xlink" x="0px" y="0px"
	 viewBox="0 0 100 100" style="enable-background:new 0 0 100 100;" xml:space="preserve">
<style type="text/css">
	.st0{display:none;fill:#666666;}
	.st1{opacity:0.72;}
	.st2{fill:#FFFFFF;}
	.st3{opacity:0.47;fill:none;}
	.st4{fill:#FF931E;}
	.st5{opacity:0.69;fill:#00FFFF;}
	.st6{fill:none;}
	.st7{fill:none;stroke:#000000;stroke-miterlimit:10;}
</style>
<rect x="-8" y="-1" class="st0" width="112" height="109"/>
<path class="st1" d="M46,45.5c0-0.1,0.2-0.2,0.4-0.2c1-0.1,1.7-0.5,2.5-1c0.6-0.4,1.3-1.7,1-2.2c-0.5-0.8-1-1.6-1.7-2.2
	c-0.6-0.6-1-1.2-1-2c0-1.2,0.2-2.4,1.3-3.1c0.9-0.6,1.9-1,3-1.2c2.1-0.4,4.2-0.5,6.2-0.8c0.2,0,0.4,0,0.7-0.1
	c1.1-0.3,2.1-0.5,3.2-0.8c0.1,0,0.4,0,0.5,0.1c0.2,0.3,0.3,0.7,0.5,1.1c0.1,0.3,0.2,0.6,0.4,0.9c1,1.2,2.5,1.5,4.1,1.5
	c2.2,0,4.5-0.1,6.7-0.2c1,0,1.9-0.2,2.9-0.4c0.6-0.1,0.9-0.4,0.9-1c0-0.2,0.1-0.4,0.1-0.6c0.1-0.6,0.4-1.1,0.4-1.7
	c0-0.7,0.3-1,0.9-1.1c0.5-0.2,1.1-0.1,1.6-0.3c1-0.2,2-0.5,3.1-0.8c0.8-0.2,1.6-0.3,2.5-0.4c0.4-0.1,0.5-0.3,0.4-0.6
	c-0.1-0.3-0.3-0.5-0.7-0.4c-0.9,0.3-1.9,0.6-2.8,0.7c-1.8,0.4-3.6,0.7-5.4,1c-0.4,0.1-0.6,0.2-0.6,0.6c0,0.8-0.1,1.5-0.1,2.3
	c-0.1,1.1-0.9,1.6-1.9,1.6c-1.7,0-3.4,0.1-5,0.1c-1.5,0-2.9,0-4.4-0.2c-0.6-0.1-1.3-0.6-1.7-1.1c-0.4-0.5-0.5-1.2-0.7-1.8
	c-0.1-0.4-0.7-0.8-1-0.7c-0.8,0.2-1.6,0.5-2.4,0.7c-1,0.2-2,0.3-3,0.5c-1.3,0.2-2.6,0.4-3.9,0.5c-1.4,0.1-2.6,0.7-3.9,1.1
	c-0.7,0.2-1.4,0.6-1.8,1.3c-0.3,0.5-0.5,0.9-0.8,1.4c-0.7,1.1-0.5,2.3,0.1,3.4c0.4,0.7,1.1,1.2,1.8,1.7c1,0.8,0.9,2-0.3,2.5
	c-0.7,0.3-1.5,0.7-2.3,0.8c-1.4,0.3-2.8,0.6-4.2,0.3c-0.5-0.1-1,0-1.5,0c-1.1,0.1-2.1-0.2-3.1-0.8c-0.1-0.1-0.2-0.3-0.2-0.4
	c0.1-0.5,0.2-1,0.5-1.4c0.4-0.7,1.1-1.2,1.3-1.9c0.4-1.3,0.5-2.6,0.7-3.9c0.1-0.6,0.3-1.2,0.4-1.8c0.1-1.4,0-2.8,0.1-4.1
	c0-0.3,0.1-0.7,0.2-1c0.6-1.2,1.5-2.1,2.9-2.5c0.6-0.2,1.3-0.3,2-0.5c0.5-0.1,0.9-0.3,1.4-0.3c2.1-0.2,4.3-0.4,6.4-0.7
	c1.1-0.1,2.1-0.5,3.2-0.7c2.3-0.4,4.6-0.7,6.9-1.1c0.4-0.1,0.8-0.1,1.3-0.2c0.3-0.1,0.6-0.1,0.9-0.3c0.2-0.1,0.3-0.4,0.4-0.5
	c-0.3-0.1-0.6-0.2-0.9-0.3c0,0,0,0,0-0.1c-0.1-1.5-0.2-1.5,1.6-1.9c1.3-0.3,2.6-0.5,3.9-0.7c1-0.2,2-0.6,3-0.7c0.9-0.1,1.8,0,2.8,0
	c0.2,0,0.3,0.1,0.5,0.2c0.3,0.3,0.7,0.7,0.9,1c1.1,1.6,2.7,2.4,4.6,2.5c2.9,0.2,4.7,0.2,7.5-0.2c0.4-0.1,0.7-0.1,0.7-0.6
	c0-0.4,0.7-0.5,0.3-0.4c-0.5,0.1-1.1,0.3-1.6,0.3c-2.7,0.1-5.3,0-8-0.4c-0.3,0-0.6-0.2-0.9-0.4c-1.1-0.7-1.9-1.5-2.5-2.5
	c-0.1-0.1-0.3-0.2-0.5-0.3c-0.9-0.1-1.9-0.2-2.8-0.2c-1.2,0-1.9-0.7-1.7-1.9c2.1-0.2,4.2-0.4,6.4-0.6c0.8-0.1,1.6-0.3,2.3-0.6
	c0.3-0.1,0.6-0.5,0.7-0.8c0-0.2-0.4-0.6-0.7-0.6c-1.6-0.2-3.2-0.5-4.8-0.5c-1.1-0.1-2.2,0.1-3.4,0.2c-0.4,0-0.6-0.1-0.7-0.5
	c-0.1-0.6-0.3-1.2-0.6-1.7c-0.2-0.6-0.8-0.8-1.4-0.9c-0.6,0-1.3-0.1-1.6,0.5c-0.2,0.5-0.3,1.1-0.3,1.6c0,0.4-0.1,0.7-0.6,0.8
	c-1.3,0.2-2.5,0.3-3.8,0.5c-0.8,0.2-1.6,0.4-2.3,0.8c-0.6,0.3-1.1,0.8-1.6,1.1c-0.4,0.2-0.8,0.4-0.5,0.8c0.2,0.3,0.7,0.6,1,0.5
	c0.9,0,1.8-0.2,2.8-0.4c0.6-0.1,1.2-0.2,1.7-0.3c0.9-0.2,1.7-0.3,2.6-0.5c0.4-0.1,0.6,0,0.6,0.4c0,0.5-0.1,1.1-0.1,1.6
	c0,0.2,0.1,0.5,0.3,0.7c0.1,0.1,0.4,0.1,0.5,0c0.2-0.2,0.4-0.5,0.4-0.7c-0.2-0.9-0.3-1.9,0-2.8c0-0.1-0.1-0.3-0.1-0.5
	c0-0.3-0.2-0.8-0.1-0.9c0.7-0.5,0.4-1,0.1-1.4c-0.3-0.5,0.2-0.6,0.3-0.9c0-0.1,0.4-0.2,0.5-0.1c0.3,0.1,0.6,0.4,0.7,0.6
	c0.2,0.5,0.2,1,0.4,1.6c0.2,0.7,0.7,1.1,1.3,1c2.1-0.5,4.3-0.2,6.4-0.2c0.3,0,0.6,0.2,0.8,0.3c-0.2,0.2-0.3,0.3-0.4,0.3
	c-1.6,0.1-3.1,0.3-4.7,0.4c-0.5,0-0.9,0.2-1.4,0.3c-0.3,0-0.6,0-0.9-0.1c-0.5-0.2-0.9,0-0.9,0.5c0,0.3,0.1,0.5,0.1,0.8
	c0.1,0.6,0.3,1.1,0.3,1.7c0,0.1-0.2,0.3-0.3,0.3c-1,0.3-2,0.6-3.1,0.8c-1.3,0.3-2.5,0.5-3.8,0.7c-0.1,0-0.2,0.1-0.3,0.2
	c-0.7,0.6-0.5,1.4-0.3,2c0.3,0.7,0,0.6-0.5,0.6c-1.3,0.1-2.5,0.2-3.8,0.4c-0.2,0-0.4,0.1-0.6,0.2c-0.3,0.1-0.7,0.2-1,0.3
	c-0.9,0.2-1.7,0.3-2.6,0.4c-0.8,0.2-1.6,0.5-2.4,0.6c-1.7,0.2-3.3,0.4-5,0.6c-0.1,0-0.2,0-0.3,0.1c-1.4,0.2-2.7,0.5-4.1,0.7
	c-0.6,0.1-1.2,0.2-1.7,0.6c-0.6,0.5-1.3,1-1.9,1.5c-0.5,0.5-0.9,1.1-1,1.7c-0.2,1.4-0.2,2.7-0.3,4.1c-0.1,1-0.3,2-0.4,3
	c0,0,0,0.1,0,0.1c-0.1,0.7-0.4,1.4-0.4,2.1c0,0.9-0.5,1.5-1,2.2c-0.5,0.6-0.9,1.3-1.2,2.1c-0.1,0.3,0.1,1,0.4,1.2
	c1.1,0.7,2.2,1.3,3.6,1.2c0.8,0,1.6,0,2.4,0c0.5,0,1,0,1.4,0c0.8-0.1,1.6-0.2,2.4-0.3 M66.9,14.6c-0.5,0.1-1,0.1-1.5,0.2
	c-1.3,0.2-2.6,0.5-4,0.8c-0.2,0-0.4,0-0.6,0c0.1-0.2,0.1-0.4,0.3-0.5c0.5-0.3,1-0.6,1.5-0.7c1.4-0.2,2.9-0.3,4.4-0.5
	c0-0.1,0-0.1,0.1-0.2c0.1,0.1,0.4,0.3,0.4,0.3C67.3,14.3,67.1,14.6,66.9,14.6z"/>
<path d="M49.5,18.3C49.5,18.3,49.5,18.3,49.5,18.3C49.5,18.3,49.5,18.2,49.5,18.3C49.5,18.3,49.5,18.3,49.5,18.3
	C49.5,18.3,49.5,18.3,49.5,18.3z"/>
<path d="M103.7,20.8c-0.1-0.1-0.1-0.2-0.2-0.3c0,0,0,0,0.1,0C103.6,20.5,103.7,20.7,103.7,20.8C103.8,20.8,103.7,20.8,103.7,20.8z"
	/>
<g>
	<path class="st2" d="M-33.9,22.5V24h-5.8v-1.5h1.9v-5.8l-2.1,1.3l-0.8-1.4l3.2-2h1.7v7.9H-33.9z"/>
</g>
<g>
	<g>
		<path class="st3" d="M12.4,60.3c2.4,0.5,5.8,1.5,7.7,1.7c1.8,0.2,3.5-0.4,4.9-1.6c2.3-2,5.2-2.2,7.9-2.5c0.2,0.9,0.4,1.7,0.6,2.5
			c0,0.2-0.1,0.4-0.3,0.6c-0.8,0.9-1.6,1.8-2.4,2.7c-0.8,0.9-1.9,1.1-3.1,1.2C25.5,65,23.2,65.1,21,65c-2-0.1-5.5-0.1-8.1-0.2
			C12.7,63.3,12.5,61.8,12.4,60.3z"/>
		<path class="st3" d="M12.8,64.4c4.6,0.7,10.2,2,14.7,1.6c1.8-0.1,3.4-0.8,4.4-2.3c2-3,5.1-4,8.5-4.6c4.4-0.8,8.7-1.8,13-2.7
			c0.4-0.1,0.9-0.2,1.3-0.3c1.4-0.2,2,0.6,1.5,1.9c-0.1,0.3-0.3,0.5-0.3,0.6c-1.3,0-2.4-0.2-3.4,0c-0.8,0.2-1.5,0.8-2.2,1.2
			c-0.3,0.2-0.8,0.3-1,0.2c-2.4-0.8-4.2,0-5.1,2.3c-0.2,0.4-0.5,0.9-0.9,1.2c-0.8,0.7-1.2,1.5-1.2,2.5c0,0.4-0.2,0.9-0.5,1.3
			c-1.1,1.5-0.9,2.8,0.5,4c0.2,0.2,0.3,0.6,0.2,0.8c-0.5,1.6-0.2,3.1,1,4.3c1.2,1.1,2.7,1.5,4.4,0.9c0.6-0.2,1-0.1,1.5,0.2
			c1.5,1,4.9,1.2,6.3-0.6c0.1-0.1,0.2-0.2,0.3-0.2c1.7-0.1,3.4-0.3,5.1-0.3c3.2,0.1,6.3,0.3,9.5,0.4c0.6,0,1.3,0,1.7,0.2
			c1.1,0.6,1,1.9,0,2.7c-1.1,0.8-2.4,1-3.7,1.1c-5.6,0.4-11.1-0.3-16.5-1.3c-0.3,0-0.6,0.1-0.8,0.1c0.1,0.3,0.1,0.6,0.4,0.8
			c0.2,0.2,0.6,0.3,0.9,0.3c4.3,0.6,8.6,1.3,13,1.2c0.6,0,1.4-0.1,1.5,0.7c0.1,0.8-0.3,1.4-1.1,1.6c-1.5,0.4-2.9,0.8-4.4,0.8
			c-6.1,0.1-12.2,0-18.3,0c-0.7,0-1.2-0.2-1.2-0.9c0,0,0-0.1,0-0.1c-0.7-1-1-2-0.6-3.3c0.3-1-0.9-2.1-2.2-2.3
			c-0.7-0.1-1.2-0.4-1.5-1c-0.7-1.3-2.3-2-3.7-1.7c-0.5,0.1-1.1,0.4-1.5,0.8c-1,1.1-1.8,1.3-3.1,0.6c-1.2-0.6-2.7-0.2-3.4,0.8
			c-0.3,0.4-0.8,0.7-1.2,1.1c-0.4,0.4-0.9,0.8-1.2,1.2c-0.3,0.4-0.5,0.5-1.1,0.4c-2.5-0.6-6.3-0.4-9.3-0.3
			C14,75,13.4,69.7,12.8,64.4z"/>
		<path d="M12.2,80.8"/>
		<path class="st4" d="M32.8,57.9c0.2,0.9,0.4,1.7,0.6,2.5 M33.4,60.4c0,0.2-0.1,0.4-0.3,0.6c-0.8,0.9-1.6,1.8-2.4,2.7
			c-0.8,0.9-1.9,1.1-3.1,1.2C25.5,65,23.2,65.1,21,65c-2.7-0.2-5.5-0.5-8.2-0.7c0,0.4,0.1,0.8,0.1,1.3c4.8,0.7,9.7,0.8,14.6,0.5
			c1.8-0.1,3.4-0.8,4.4-2.3c2-3,5.1-4,8.5-4.6c4.4-0.8,8.7-1.8,13-2.7c0.4-0.1,0.9-0.2,1.3-0.3c1.4-0.2,2,0.6,1.5,1.9
			c-0.1,0.3-0.3,0.5-0.3,0.6c-1.3,0-2.4-0.2-3.4,0c-0.8,0.2-1.5,0.8-2.2,1.2c-0.3,0.2-0.8,0.3-1,0.2c-2.4-0.8-4.2,0-5.1,2.3
			c-0.2,0.4-0.5,0.9-0.9,1.2c-0.8,0.7-1.2,1.5-1.2,2.5c0,0.4-0.2,0.9-0.5,1.3c-1.1,1.5-0.9,2.8,0.5,4c0.2,0.2,0.3,0.6,0.2,0.8
			c-0.5,1.6-0.2,3.1,1,4.3c1.2,1.1,2.7,1.5,4.4,0.9c0.6-0.2,1-0.1,1.5,0.2c1.5,1,4.9,1.2,6.3-0.6c0.1-0.1,0.2-0.2,0.3-0.2
			c1.7-0.1,3.4-0.3,5.1-0.3c3.2,0.1,6.3,0.3,9.5,0.4c0.6,0,1.3,0,1.7,0.2c1.1,0.6,1,1.9,0,2.7c-1.1,0.8-2.4,1-3.7,1.1
			c-5.6,0.4-11.1-0.3-16.5-1.3c-0.3,0-0.6,0.1-0.8,0.1c0.1,0.3,0.1,0.6,0.4,0.8c0.2,0.2,0.6,0.3,0.9,0.3c4.3,0.6,8.6,1.3,13,1.2
			c0.6,0,1.4-0.1,1.5,0.7c0.1,0.8-0.3,1.4-1.1,1.6c-1.5,0.4-2.9,0.8-4.4,0.8c-6.1,0.1-12.2,0-18.3,0c-0.7,0-1.2-0.2-1.2-0.9
			c0,0,0-0.1,0-0.1c-0.7-1-1-2-0.6-3.3c0.3-1-0.9-2.1-2.2-2.3c-0.7-0.1-1.2-0.4-1.5-1c-0.7-1.3-2.3-2-3.7-1.7
			c-0.5,0.1-1.1,0.4-1.5,0.8c-1,1.1-1.8,1.3-3.1,0.6c-1.2-0.6-2.7-0.2-3.4,0.8c-0.3,0.4-0.8,0.7-1.2,1.1c-0.4,0.4-0.9,0.8-1.2,1.2
			c-0.3,0.4-0.5,0.5-1.1,0.4c-3-0.7-6.1-1-9.2-0.8c0,0.4-0.1,0.7-0.1,1.1c3.1-0.1,6.1,0.1,9.1,0.8c0.4,0.1,0.7,0.5,1,0.8
			c0.8,0.9,1.6,1.8,2,2.9c0,0.1,0.1,0.1,0.1,0.1c1.6,0.6,1.9,2,2.4,3.3c0.8,2,4.1,3.1,6,1.6c0.2-0.2,0.8-0.2,1.1,0
			c1.5,0.5,2.8,0.3,4-0.5c0.4-0.2,0.8-0.6,0.9-1c0.1-1.1,1.1-1.7,1.7-2.4c0.2-0.3,0.8-0.5,1.2-0.5c4.3,0,8.5,0.1,12.8,0.1
			c2.5,0,5-0.1,7.5-0.3c1.9-0.2,3.6-0.7,4.7-2.4c0.1-0.2,0.3-0.4,0.3-0.6c0-1.2,0.8-1.2,1.8-1.5c1.2-0.3,2.4-0.9,3.4-1.7
			c1.1-0.9,1.4-2.1,0.4-3.4c1.8-0.8,3.6-1.4,3.7-3.3c0.1-1.8-1.6-2-3-2.6c0.7-1.2,0.9-2.4-0.2-3.3c-0.9-0.7-2.1-1.2-3.2-1.8
			c0,0.1,0,0,0,0c1-2.5,0.3-3.8-2.4-4.4c-1.6-0.3-3.3-0.4-4.9-0.7c-2.3-0.3-4.7-0.6-7.1-1c0.3-0.8,0.7-1.5,0.9-2.2
			c0.4-1.3-0.6-2.4-2-2.2c-0.9,0.1-1.7,0.3-2.6,0.5c-0.9,0.2-1.7,0.4-2.6,0.6c-0.2,0.1-0.5,0.1-0.9,0.1c0.2-0.4,0.3-0.6,0.4-0.9
			c0.2-0.5,0.4-1,0.4-1.4c0.2-1.7-0.7-2.4-2.4-1.9c-1.2,0.4-2.4,0.8-3.6,1.1c-0.3,0.1-0.8,0-1.1-0.2c-1.2-0.7-2.6-0.6-3.7,0.4
			c-0.2,0.2-0.6,0.4-1,0.4c-1.1,0.2-2,0.6-2.5,1.6c-0.2,0.3-0.5,0.7-0.9,0.7c-1.4,0.3-2.8,0.8-4.2,0.8c-2.1,0.1-3.9,0.9-5.5,2.1
			c-1.7,1.3-3.6,1.9-5.7,1.7c-2.4-0.2-4.7-0.5-7.1-0.7c0,0.4,0.1,0.8,0.1,1.1c2.5,0.3,5,0.5,7.6,0.8c1.8,0.2,3.5-0.4,4.9-1.6
			c2.3-2,5.2-2.2,7.9-2.5 M43.2,56.1c0.8,0.3,1.4,0.6,2,0.8c0,0.1-0.1,0.3-0.1,0.4c-0.5,0.1-1,0.2-1.4,0.2c-3,0.4-5.9,0.7-8.7,2
			c-0.2,0.1-0.8-0.1-0.8-0.3c-0.2-0.4-0.3-1-0.1-1.3c0.3-0.4,0.9-0.7,1.4-0.7c0.8,0,1.1-0.3,1.1-1c-0.1-1,0.7-1.5,1.5-1.4
			c1,0.1,1.7,0,1.9-1c0-0.1,0.3-0.2,0.5-0.3c1.4-0.4,2.7,0.5,2.8,1.9C43.2,55.9,43.2,56.1,43.2,56.1z M46.8,57
			c-0.1,0-0.4-0.1-0.7-0.2c-0.6-0.4-1.2-0.9-1.7-1.4C44.2,55.2,44,55,44,54.7c0-0.1,0.3-0.4,0.4-0.4c1.1-0.4,2.3-0.8,3.5-1.2
			c0.8-0.3,1.2,0,1.3,0.8C49.4,55.2,48.4,56.5,46.8,57z M60.8,65c0.1,0.1,0.2,0.2,0.3,0.2c1.1,0.4,1.7,1.1,1.7,2.2
			c0,1.1-0.8,1.6-1.7,1.9c-0.8,0.3-0.8,0.8-0.5,1.5c1.1,2.6-0.1,4.5-3,4.7c-0.7,0.1-1.4-0.3-2.1-0.5C55.1,75,54.7,75,54.4,75
			c0.1,0.3,0.2,0.7,0.4,1c0,0.1,0.2,0.2,0.3,0.3c-1.1,1.1-4.2,1.1-5.3-0.1c-0.4-0.5-0.8-0.5-1.3-0.2c-1.1,0.6-2.2,0.5-3.3,0.1
			c-1.9-0.7-2.6-2.6-1.8-4.4c0.3-0.6,0.2-1.1-0.5-1.5c-1.3-0.7-1.4-1.8-0.3-2.8c0.3-0.3,0.5-0.9,0.5-1.3c-0.1-1.7,0.9-2.6,2.7-2.3
			c1.5,0.2,2.6,1,3,2.5c0.9-0.4,1.8-0.4,2.5,0.3c0.2,0.2,0.5,0.3,0.7,0.4c0-0.3,0.2-0.7,0.1-0.9c-0.1-0.3-0.4-0.8-0.7-0.8
			c-1.6-0.1-2.4-1.2-3.5-2c-0.5-0.4-1.2-0.4-1.9-0.6c-0.3-0.1-0.6-0.1-1.2-0.2c0.5-0.5,0.8-1.1,1.2-1.3c1.4-0.7,2.8-0.2,4.1,0.7
			c0.4-0.7,0.6-1.5,1.1-1.9c1.4-1.1,3.7-0.7,4.7,0.7c0.4,0.5,0.7,0.7,1.4,0.4c1.3-0.4,2.4,0,3.3,0.9c0.8,0.8,0.8,1.8,0.1,2.7
			C60.7,64.7,60.8,64.9,60.8,65z M70.4,64.2c0.2,0.7-0.6,1.5-1.3,1.4c-2.1-0.2-4.1-0.5-6.2-0.8c-0.4-0.1-0.9-0.5-0.9-0.8
			c-0.1-0.8,0-1.7,0-2.6c1.6,0.2,3.3,0.3,5,0.5c0.8,0.1,1.7,0.4,2.3,0.8C69.9,63,70.3,63.6,70.4,64.2z M73.9,69.6
			c-0.1,0.3-0.7,0.6-1.2,0.8c-0.4,0.1-0.8,0.1-1.3,0.1c-2.3-0.1-4.6-0.3-6.9-0.5c-0.6-0.1-1.2-0.2-1.6-0.3c0.4-1.3,0.8-2.5,1.2-4
			c2.5,0.5,5.3,1.1,8.1,1.7c0.4,0.1,0.8,0.4,1.1,0.7C73.6,68.6,74,69.2,73.9,69.6z M71.8,75.6c-3.2,0.1-6.3-0.1-9.5-0.2
			c-0.4,0-0.9-0.1-1.5-0.2c1.1-1.4,1.4-2.8,1-4.4c0.4,0,0.6,0,0.8,0.1c3.3,0.9,6.8,0.7,10.2,0.8c1,0,2.1,0.6,3.1,1.1
			c0.9,0.5,0.8,1.3-0.2,1.7C74.4,75,73.1,75.6,71.8,75.6z M29.1,86.9c0.5,0,1.1-0.2,1.3-0.6c0.5-0.8,1.2-1.1,1.9-1
			c2.4-0.6,3.1-2.1,1.8-4C34.1,81.2,34,81,34,80.8c0.1-1-0.2-1.8-0.8-2.5c-0.5-0.6-0.2-1.1,0.6-1.3c1.2-0.2,2.4,0.2,2.9,1.2
			c0.5,1,1.2,1.4,2.3,1.6c1.6,0.3,2,1.5,0.9,2.7c-0.5,0.5-0.4,0.7,0.2,1.1c0.6,0.5,1.1,1.2,1.2,1.9c0.1,0.7-0.5,1.3-1.4,1.5
			c-0.3,0.1-0.5,0.7-0.7,1.1c-0.2,0.4-0.4,1.1-0.7,1.3c-1.1,0.5-2.3,0.7-3.4,0c-0.2-0.1-0.8-0.1-1,0.1c-2.1,1.5-4.7,0.8-5.6-1.6
			C28.2,87.4,28.1,87,29.1,86.9z M24.1,81.3c0.1-0.9,0.8-1.1,1.6-1.3c0.6-0.1,1-0.4,1-1c0-0.8,0.6-1,1.2-0.9
			c0.6,0.1,1.1,0.4,1.6,0.6c0.3,0.1,0.7,0.2,0.9,0.1c0.7-0.4,1.5-0.5,2,0.1c0.6,0.5,0.9,1.3,0.5,2.1c-0.3,0.6-0.2,0.9,0.4,1.2
			c0.9,0.5,0.9,1.3,0,1.7c-0.5,0.2-1.3,0.2-1.8,0.1c-0.7-0.2-1-0.1-1,0.5c0,0.9-0.6,1.1-1.2,1.2c-1.7,0.4-3.2-0.6-3.5-2.2
			c0-0.2-0.2-0.5-0.4-0.6C24.4,82.7,24,82.1,24.1,81.3z"/>
		<path d="M55,53.3c0.1,0,0.2,0,0.3-0.1"/>
		<path class="st5" d="M55.1,76.3c-0.1-0.1-0.3-0.2-0.3-0.3c-0.1-0.3-0.3-0.7-0.4-1c0.4,0,0.7,0,1.1,0.1c0.7,0.1,1.4,0.5,2.1,0.5
			c2.9-0.2,4.1-2.1,3-4.7c-0.3-0.7-0.3-1.3,0.5-1.5c1-0.3,1.7-0.8,1.7-1.9c0-1.1-0.7-1.8-1.7-2.2c-0.1,0-0.2-0.1-0.3-0.2
			c0-0.1,0-0.2,0-0.3c0.7-0.9,0.7-1.9-0.1-2.7c-0.9-0.9-2-1.3-3.3-0.9c-0.7,0.2-1,0.1-1.4-0.4c-1-1.4-3.3-1.8-4.7-0.7
			c-0.5,0.4-0.7,1.2-1.1,1.9c-1.4-0.9-2.7-1.4-4.1-0.7c-0.4,0.2-0.7,0.7-1.2,1.3c0.6,0.1,0.9,0.1,1.2,0.2c0.6,0.2,1.4,0.2,1.9,0.6
			c1.1,0.8,2,1.9,3.5,2c0.3,0,0.6,0.5,0.7,0.8c0.1,0.3-0.1,0.6-0.1,0.9c-0.2-0.1-0.5-0.2-0.7-0.4c-0.7-0.7-1.5-0.7-2.5-0.3
			c-0.4-1.5-1.5-2.2-3-2.5c-1.7-0.2-2.8,0.7-2.7,2.3c0,0.4-0.1,1-0.5,1.3c-1.1,1-1,2.1,0.3,2.8c0.7,0.4,0.8,0.9,0.5,1.5
			c-0.8,1.8-0.1,3.6,1.8,4.4c1.1,0.4,2.2,0.5,3.3-0.1c0.5-0.3,0.8-0.3,1.3,0.2C50.9,77.4,54,77.4,55.1,76.3z"/>
		<path class="st5" d="M32.3,85.4c-0.7-0.1-1.4,0.2-1.9,1c-0.2,0.3-0.8,0.5-1.3,0.6c-0.9,0.1-0.9,0.5-0.7,1.2
			c0.9,2.4,3.5,3.1,5.6,1.6c0.2-0.2,0.8-0.2,1-0.1c1.2,0.7,2.3,0.5,3.4,0c0.4-0.2,0.5-0.8,0.7-1.3c0.2-0.4,0.4-1,0.7-1.1
			c0.9-0.3,1.5-0.8,1.4-1.5c-0.1-0.7-0.6-1.5-1.2-1.9c-0.6-0.4-0.7-0.6-0.2-1.1c1.1-1.2,0.8-2.4-0.9-2.7c-1.1-0.2-1.8-0.6-2.3-1.6
			c-0.5-1-1.7-1.4-2.9-1.2c-0.8,0.2-1.1,0.7-0.6,1.3c0.6,0.8,0.9,1.5,0.8,2.5c0,0.2,0,0.4,0.1,0.6C35.4,83.2,34.7,84.8,32.3,85.4z"
			/>
		<path class="st3" d="M60.8,75.1c0.6,0.1,1.1,0.2,1.5,0.2c3.2,0.1,6.3,0.3,9.5,0.2c1.3,0,2.7-0.6,3.9-1.1c0.9-0.4,1-1.2,0.2-1.7
			c-0.9-0.6-2-1.1-3.1-1.1c-3.4-0.1-6.8,0-10.2-0.8c-0.2,0-0.4,0-0.8-0.1C62.2,72.3,61.9,73.7,60.8,75.1z"/>
		<path class="st5" d="M29.2,85.9c0.7-0.2,1.2-0.4,1.2-1.2c0-0.6,0.4-0.7,1-0.5c0.6,0.1,1.3,0.2,1.8-0.1c1-0.4,0.9-1.3,0-1.7
			c-0.6-0.3-0.7-0.6-0.4-1.2c0.4-0.8,0.1-1.6-0.5-2.1c-0.6-0.5-1.3-0.4-2-0.1c-0.2,0.1-0.6,0-0.9-0.1c-0.5-0.2-1.1-0.6-1.6-0.6
			c-0.6-0.1-1.2,0.1-1.2,0.9c0,0.6-0.4,0.9-1,1c-0.8,0.1-1.5,0.4-1.6,1.3c-0.1,0.8,0.3,1.4,1.1,1.7c0.2,0.1,0.4,0.4,0.4,0.6
			C26,85.3,27.5,86.3,29.2,85.9z"/>
		<path class="st3" d="M64.1,65.7c-0.5,1.5-0.8,2.6-1.2,4c0.4,0.1,1,0.3,1.6,0.3c2.3,0.2,4.6,0.3,6.9,0.5c0.4,0,0.9,0,1.3-0.1
			c0.5-0.2,1.1-0.5,1.2-0.8c0.1-0.4-0.3-1-0.6-1.4c-0.3-0.3-0.7-0.6-1.1-0.7C69.5,66.8,66.6,66.2,64.1,65.7z"/>
		<path class="st5" d="M34.9,59.7c2.7-1.3,5.7-1.7,8.7-2c0.5-0.1,1-0.2,1.4-0.2c0-0.1,0.1-0.3,0.1-0.4c-0.6-0.2-1.2-0.5-2-0.8
			c0,0,0-0.3-0.1-0.5c-0.1-1.4-1.4-2.3-2.8-1.9c-0.2,0.1-0.5,0.2-0.5,0.3c-0.3,1-0.9,1.1-1.9,1c-0.8-0.1-1.6,0.4-1.5,1.4
			c0.1,0.7-0.3,1-1.1,1c-0.5,0-1.1,0.3-1.4,0.7c-0.2,0.3,0,0.9,0.1,1.3C34.2,59.6,34.7,59.8,34.9,59.7"/>
		<path class="st3" d="M62,61.3c0,1-0.1,1.8,0,2.6c0,0.3,0.6,0.7,0.9,0.8c2,0.3,4.1,0.6,6.2,0.8c0.7,0.1,1.4-0.7,1.3-1.4
			c-0.1-0.5-0.5-1.1-1-1.4c-0.7-0.4-1.5-0.7-2.3-0.8C65.4,61.6,63.7,61.5,62,61.3z"/>
		<path class="st3" d="M46.8,57c1.7-0.4,2.6-1.8,2.5-3c-0.1-0.8-0.5-1.1-1.3-0.8c-1.2,0.4-2.3,0.8-3.5,1.2c-0.2,0.1-0.5,0.3-0.4,0.4
			c0,0.2,0.2,0.5,0.4,0.6c0.5,0.5,1.1,0.9,1.7,1.4C46.3,56.9,46.7,56.9,46.8,57z"/>
	</g>
	<g>
		<path class="st6" d="M39.4,79.6c0.1,0.1,0.1,0.1,0.2,0.2c0.1,0.2,0.2,0.4,0.3,0.7c0.1,0.3,0.1,0.7,0.1,1c0,0.1-0.2,0.3-0.4,0.4
			c-0.1,0-0.2-0.1-0.3-0.2c-0.1-0.1-0.2-0.2-0.3-0.4c0.1-0.5,0.1-1,0.2-1.5C39.3,79.7,39.3,79.7,39.4,79.6z"/>
		<path class="st5" d="M37.7,77.1c0,0.1,0.1,0.2,0.1,0.4c0.1,0.3,0.6,0.6,0.9,0.4c0.2-0.1,0.4-0.2,0.5-0.4c0.2-0.2,0.3-0.5,0.2-0.8
			c-0.2-0.5-0.3-1-0.4-1.6c0-0.2-0.1-0.4,0.1-0.6c0.1-0.1,0-0.3,0-0.5c-0.2,0.1-0.3,0.1-0.3,0.2c-0.3,0.4-0.8,0.8-1,1.3
			C37.4,76.1,37.5,76.6,37.7,77.1z"/>
	</g>
	<g>
		<path class="st6" d="M44.9,86c0.1,0,0.2,0.1,0.2,0.1c0.2,0.2,0.4,0.3,0.5,0.5c0.2,0.3,0.4,0.6,0.5,0.9c0,0.1-0.1,0.3-0.2,0.5
			c0,0-0.2,0-0.3,0c-0.1,0-0.2-0.1-0.4-0.3c-0.1-0.5-0.3-1-0.4-1.5C44.8,86.2,44.9,86.1,44.9,86z"/>
		<path class="st5" d="M42.3,84.3c0.1,0.1,0.2,0.2,0.2,0.3c0.2,0.3,0.8,0.3,1,0c0.1-0.2,0.3-0.3,0.3-0.5c0.1-0.3,0-0.6-0.2-0.8
			c-0.4-0.4-0.7-0.8-1-1.3c-0.1-0.2-0.2-0.3-0.2-0.5c0-0.1-0.1-0.3-0.2-0.5c-0.1,0.2-0.2,0.2-0.2,0.3c-0.1,0.5-0.4,1.1-0.4,1.6
			C41.7,83.4,42,83.9,42.3,84.3z"/>
	</g>
	<g>
		<path class="st6" d="M43.6,94.1c0.1,0,0.2,0.1,0.2,0.1c0.2,0.2,0.4,0.3,0.5,0.5c0.2,0.3,0.4,0.6,0.5,0.9c0,0.1-0.1,0.3-0.2,0.5
			c0,0-0.2,0-0.3,0c-0.1,0-0.2-0.1-0.4-0.3c-0.1-0.5-0.3-1-0.4-1.5C43.5,94.2,43.6,94.1,43.6,94.1z"/>
		<path class="st5" d="M41,92.4c0.1,0.1,0.2,0.2,0.2,0.3c0.2,0.3,0.8,0.3,1,0c0.1-0.2,0.3-0.3,0.3-0.5c0.1-0.3,0-0.6-0.2-0.8
			c-0.4-0.4-0.7-0.8-1-1.3c-0.1-0.2-0.2-0.3-0.2-0.5c0-0.1-0.1-0.3-0.2-0.5c-0.1,0.2-0.2,0.2-0.2,0.3c-0.1,0.5-0.4,1.1-0.4,1.6
			C40.4,91.5,40.7,92,41,92.4z"/>
	</g>
	<g>
		<path class="st6" d="M32.5,78.1c0.1,0.1,0.1,0.1,0.2,0.2c0.1,0.2,0.2,0.4,0.3,0.7c0.1,0.3,0.1,0.7,0.1,1c0,0.1-0.2,0.3-0.4,0.4
			c-0.1,0-0.2-0.1-0.3-0.2c-0.1-0.1-0.2-0.2-0.3-0.4c0.1-0.5,0.1-1,0.2-1.5C32.3,78.2,32.4,78.1,32.5,78.1z"/>
		<path class="st5" d="M30.7,75.6c0,0.1,0.1,0.2,0.1,0.4c0.1,0.3,0.6,0.6,0.9,0.4c0.2-0.1,0.4-0.2,0.5-0.4c0.2-0.2,0.3-0.5,0.2-0.8
			c-0.2-0.5-0.3-1-0.4-1.6c0-0.2-0.1-0.4,0.1-0.6c0.1-0.1,0-0.3,0-0.5c-0.2,0.1-0.3,0.1-0.3,0.2c-0.3,0.4-0.8,0.8-1,1.3
			C30.5,74.5,30.6,75.1,30.7,75.6z"/>
	</g>
	<g>
		<path class="st6" d="M30.3,69.2c0.1,0.1,0.1,0.1,0.2,0.2c0.1,0.2,0.2,0.4,0.3,0.7c0.1,0.3,0.1,0.7,0.1,1c0,0.1-0.2,0.3-0.4,0.4
			c-0.1,0-0.2-0.1-0.3-0.2c-0.1-0.1-0.2-0.2-0.3-0.4c0.1-0.5,0.1-1,0.2-1.5C30.1,69.3,30.2,69.3,30.3,69.2z"/>
		<path class="st5" d="M28.6,66.8c0,0.1,0.1,0.2,0.1,0.4c0.1,0.3,0.6,0.6,0.9,0.4c0.2-0.1,0.4-0.2,0.5-0.4c0.2-0.2,0.3-0.5,0.2-0.8
			c-0.2-0.5-0.3-1-0.4-1.6c0-0.2-0.1-0.4,0.1-0.6c0.1-0.1,0-0.3,0-0.5c-0.2,0.1-0.3,0.1-0.3,0.2c-0.3,0.4-0.8,0.8-1,1.3
			C28.3,65.7,28.4,66.2,28.6,66.8z"/>
	</g>
	<g>
		<path class="st6" d="M55.5,79.2c0,0.1,0,0.2,0,0.3c0.1,0.2,0.2,0.5,0.3,0.7c0.2,0.3,0.4,0.7,0.7,0.9c0.1,0.1,0.4,0.1,0.6,0
			c0.1,0,0.1-0.2,0.1-0.3c0-0.1,0-0.3-0.1-0.5c-0.4-0.3-0.9-0.7-1.3-1C55.7,79.2,55.6,79.2,55.5,79.2z"/>
		<path class="st5" d="M53.8,74.7c-0.6-0.2-1.2-0.3-1.8-0.4c-0.1,0-0.2,0-0.4,0.1c0.2,0.2,0.3,0.4,0.4,0.4c0.3,0,0.4,0.2,0.5,0.4
			c0.3,0.5,0.6,1,0.8,1.5c0.2,0.3,0.4,0.5,0.7,0.5c0.2,0,0.5,0,0.7-0.1c0.3-0.1,0.6-0.7,0.4-1c-0.1-0.1-0.1-0.2-0.2-0.4
			C54.7,75.5,54.4,75,53.8,74.7z"/>
	</g>
	<g>
		<path class="st6" d="M53.9,68.8c0,0.1-0.1,0.2-0.1,0.2c0,0.3,0,0.5,0,0.8c0.1,0.4,0.1,0.8,0.3,1.1c0.1,0.1,0.4,0.2,0.6,0.2
			c0.1,0,0.2-0.2,0.2-0.3c0.1-0.1,0.1-0.3,0.1-0.5c-0.3-0.4-0.6-0.9-0.9-1.4C54.1,68.8,54,68.8,53.9,68.8z"/>
		<path class="st5" d="M54,64.1c-0.4-0.4-1-0.7-1.6-1c-0.1,0-0.2,0-0.4-0.1c0.1,0.2,0.1,0.5,0.2,0.5c0.3,0.1,0.3,0.3,0.3,0.5
			c0.1,0.6,0.2,1.2,0.2,1.7c0,0.3,0.2,0.6,0.5,0.8c0.2,0.1,0.4,0.1,0.7,0.2c0.3,0,0.8-0.4,0.8-0.8c0-0.1,0-0.3-0.1-0.4
			C54.6,65,54.4,64.4,54,64.1z"/>
	</g>
	<g>
		<path class="st6" d="M65.8,77c0,0.1-0.1,0.2-0.1,0.2c0,0.3,0,0.5,0,0.8c0.1,0.4,0.1,0.8,0.3,1.1c0.1,0.1,0.4,0.2,0.6,0.2
			c0.1,0,0.2-0.2,0.2-0.3c0.1-0.1,0.1-0.3,0.1-0.5c-0.3-0.4-0.6-0.9-0.9-1.4C66,77,65.9,77,65.8,77z"/>
		<path class="st5" d="M65.8,72.3c-0.4-0.4-1-0.7-1.6-1c-0.1,0-0.2,0-0.4-0.1c0.1,0.2,0.1,0.5,0.2,0.5c0.3,0.1,0.3,0.3,0.3,0.5
			c0.1,0.6,0.2,1.2,0.2,1.7c0,0.3,0.2,0.6,0.5,0.8c0.2,0.1,0.4,0.1,0.7,0.2c0.3,0,0.8-0.4,0.8-0.8c0-0.1,0-0.3-0.1-0.4
			C66.4,73.2,66.3,72.6,65.8,72.3z"/>
	</g>
	<g>
		<path class="st6" d="M62.7,89.3c-0.1,0-0.2,0.1-0.2,0.1c-0.2,0.2-0.4,0.3-0.5,0.6c-0.2,0.3-0.4,0.6-0.6,1
			c-0.1,0.1,0.1,0.4,0.2,0.5c0,0,0.3,0,0.4,0c0.1-0.1,0.2-0.2,0.4-0.3c0.1-0.5,0.3-1.1,0.4-1.6C62.8,89.4,62.7,89.4,62.7,89.3z"/>
		<path class="st5" d="M66.1,85.9c0-0.6-0.3-1.1-0.4-1.7c0-0.1-0.1-0.1-0.3-0.3c-0.1,0.2-0.3,0.4-0.2,0.6c0.1,0.3,0,0.4-0.2,0.6
			c-0.4,0.5-0.7,0.9-1.1,1.4c-0.2,0.3-0.3,0.6-0.2,0.9c0.1,0.2,0.2,0.4,0.4,0.5c0.2,0.3,0.9,0.2,1.1-0.1c0.1-0.1,0.2-0.2,0.2-0.3
			C65.9,87,66.2,86.4,66.1,85.9z"/>
	</g>
	<g>
		<path class="st6" d="M59.3,59.3c0,0.1,0,0.2,0.1,0.2c0.2,0.2,0.3,0.4,0.5,0.6c0.3,0.2,0.6,0.5,1,0.7c0.1,0.1,0.4-0.1,0.6-0.2
			c0.1,0,0-0.2,0-0.3c0-0.1-0.1-0.2-0.2-0.5c-0.5-0.2-1.1-0.4-1.6-0.6C59.5,59.2,59.4,59.3,59.3,59.3z"/>
		<path class="st5" d="M56.3,55.6c-0.6,0-1.2,0.1-1.8,0.2c-0.1,0-0.2,0.1-0.4,0.2c0.2,0.1,0.4,0.3,0.5,0.3c0.3-0.1,0.4,0.1,0.6,0.2
			c0.4,0.4,0.9,0.8,1.3,1.2c0.3,0.2,0.5,0.4,0.9,0.3c0.2,0,0.4-0.2,0.6-0.3c0.3-0.2,0.3-0.8,0.1-1.1c-0.1-0.1-0.2-0.2-0.3-0.3
			C57.4,56,56.9,55.7,56.3,55.6z"/>
	</g>
	<g>
		<path class="st6" d="M54.6,91.5c0.1,0,0.2,0,0.2,0.1c0.2,0.2,0.4,0.3,0.5,0.5c0.2,0.3,0.4,0.6,0.6,0.9c0.1,0.1-0.1,0.3-0.2,0.5
			c0,0-0.2,0-0.3,0c-0.1,0-0.2-0.1-0.4-0.2c-0.1-0.5-0.3-1-0.4-1.5C54.5,91.7,54.5,91.6,54.6,91.5z"/>
		<path class="st5" d="M51.9,90c0.1,0.1,0.2,0.2,0.2,0.3c0.2,0.2,0.8,0.2,1,0c0.1-0.2,0.2-0.3,0.3-0.5c0.1-0.3,0-0.6-0.2-0.8
			c-0.4-0.4-0.7-0.8-1.1-1.2c-0.1-0.2-0.3-0.3-0.2-0.5c0-0.1-0.1-0.3-0.2-0.5c-0.1,0.2-0.2,0.2-0.2,0.3c-0.1,0.5-0.3,1.1-0.3,1.6
			C51.2,89.1,51.5,89.6,51.9,90z"/>
	</g>
</g>
<rect x="-35.8" y="-3.6" class="st6" width="13.9" height="10.1"/>
<text transform="matrix(1 0 0 1 -35.75 5.7373)" style="display:none;fill:#FFFFFF; font-family:'Bitter-Bold'; font-size:12px;">1</text>
<g>
	<path class="st7" d="M23.3,15"/>
	<path class="st7" d="M15.4,26.2"/>
	<path class="st7" d="M14.9,27.3"/>
	<path class="st7" d="M24.3,14"/>
	<path class="st7" d="M23.3,15"/>
	<g class="st1">
		<circle cx="18.8" cy="20.3" r="9.2"/>
		<path d="M18.8,11.5c4.8,0,8.7,3.9,8.7,8.7S23.6,29,18.8,29S10,25.1,10,20.3S13.9,11.5,18.8,11.5 M18.8,10.5
			c-5.4,0-9.7,4.4-9.7,9.7s4.4,9.7,9.7,9.7s9.7-4.4,9.7-9.7S24.1,10.5,18.8,10.5L18.8,10.5z"/>
	</g>
	<g>
		<path class="st2" d="M19.6,16.3c0.1,0.1,0.1,0.2,0.1,0.4V24c0,0.2-0.1,0.3-0.2,0.4c-0.1,0.1-0.3,0.2-0.4,0.2
			c-0.2,0-0.3-0.1-0.4-0.2c-0.1-0.1-0.2-0.2-0.2-0.4v-6.2l-1.1,0.6c-0.1,0.1-0.2,0.1-0.3,0.1c-0.2,0-0.3-0.1-0.4-0.2
			c-0.1-0.1-0.2-0.3-0.2-0.4c0-0.1,0-0.2,0.1-0.3c0.1-0.1,0.1-0.2,0.2-0.2l1.9-1.1c0.1-0.1,0.3-0.1,0.4-0.1
			C19.4,16.1,19.5,16.2,19.6,16.3z"/>
	</g>
</g>
</svg>
