<?xml version="1.0" encoding="utf-8"?>
<!-- Generator: Adobe Illustrator 22.1.0, SVG Export Plug-In . SVG Version: 6.00 Build 0)  -->
<svg version="1.1" id="Capa_1" xmlns="http://www.w3.org/2000/svg" xmlns:xlink="http://www.w3.org/1999/xlink" x="0px" y="0px"
	 viewBox="0 0 100 100" style="enable-background:new 0 0 100 100;" xml:space="preserve">
<style type="text/css">
	.st0{display:none;fill:#666666;}
	.st1{fill:none;stroke:#000000;stroke-miterlimit:10;}
	.st2{opacity:0.72;stroke:#000000;stroke-miterlimit:10;}
	.st3{fill:#FFFFFF;}
	.st4{fill:#FF931E;}
	.st5{opacity:0.72;}
	.st6{fill:#00FFFF;}
	.st7{display:none;}
	.st8{display:inline;fill:#FF931E;}
	.st9{display:inline;fill:#00FFFF;}
</style>
<rect x="-8" y="-1" class="st0" width="112" height="109"/>
<rect x="-35.8" y="-3.6" style="fill:none;" width="13.9" height="10.1"/>
<text transform="matrix(1 0 0 1 -35.75 5.7373)" style="display:none;fill:#FFFFFF; font-family:'Bitter-Bold'; font-size:12px;">1</text>
<path class="st1" d="M23.3,15"/>
<path class="st1" d="M15.4,26.2"/>
<path class="st1" d="M14.9,27.3"/>
<path class="st1" d="M24.3,14"/>
<path class="st1" d="M23.3,15"/>
<path class="st2" d="M28.5,20.3c0,5.4-4.4,9.7-9.7,9.7S9,25.6,9,20.3s4.4-9.7,9.7-9.7S28.5,14.9,28.5,20.3"/>
<g>
	<path class="st1" d="M27.3,13"/>
	<path class="st1" d="M19.4,24.2"/>
	<path class="st1" d="M18.9,25.3"/>
	<path class="st1" d="M28.3,12"/>
	<path class="st1" d="M27.3,13"/>
	<g>
		<path class="st3" d="M20.1,19.6c0.4,0.2,0.6,0.5,0.9,0.9c0.2,0.4,0.3,0.8,0.3,1.3c0,0.6-0.1,1.1-0.4,1.5c-0.3,0.4-0.6,0.8-1.1,1
			s-1,0.3-1.6,0.3c-0.3,0-0.6,0-0.9-0.1c-0.3-0.1-0.6-0.2-0.8-0.4c-0.2-0.1-0.3-0.3-0.3-0.5c0-0.2,0.1-0.3,0.2-0.4s0.2-0.2,0.4-0.2
			c0.1,0,0.3,0.1,0.4,0.2c0.3,0.3,0.7,0.5,1.2,0.5c0.3,0,0.6-0.1,0.9-0.2c0.3-0.1,0.5-0.4,0.6-0.6c0.2-0.3,0.2-0.6,0.2-0.9
			c0-0.5-0.2-0.9-0.5-1.2c-0.3-0.3-0.7-0.4-1.2-0.4c-0.1,0-0.3,0-0.6,0.1c-0.2,0-0.3,0.1-0.4,0.1c-0.1,0-0.3,0-0.3-0.1
			c-0.1-0.1-0.1-0.2-0.1-0.4c0-0.1,0-0.2,0-0.2c0-0.1,0.1-0.1,0.2-0.2l2-2.2h-2.8c-0.2,0-0.3-0.1-0.4-0.2S16,16.8,16,16.7
			s0.1-0.3,0.2-0.4c0.1-0.1,0.2-0.1,0.4-0.1h3.8c0.2,0,0.3,0.1,0.4,0.2s0.2,0.2,0.2,0.4c0,0.1-0.1,0.3-0.2,0.4l-1.9,2.1
			C19.3,19.2,19.7,19.3,20.1,19.6z"/>
	</g>
</g>
<g>
	<path d="M17.9,63.6L17.9,63.6C17.9,63.6,17.9,63.6,17.9,63.6C17.9,63.6,17.9,63.6,17.9,63.6z"/>
	<path class="st4" d="M17.6,62.9c-0.1-0.1-0.2-0.2-0.3-0.2c-0.5-0.1-1.5,0.5-1.8,1.1c-0.1,0.2-0.3,0.3-0.5,0.4
		c-0.1-0.2-0.2-0.3-0.3-0.5c-0.2-0.5-0.2-1-0.5-1.4c-0.5-0.8-1.1-0.8-1.5,0.1c-0.3,0.5-0.5,1-0.7,1.5c-0.3,0.6-0.7,1.2-0.9,1.9
		c-0.3,1.4-0.5,2.9-0.1,4.3c0.1,0.3,0.1,0.7,0.1,1c0.2,1,1.3,7.9,1.5,8.9c0,0.1,0.4,0.3,0.6,0.3c0.6-0.2,0.3-0.3,0.2-0.5
		c-0.2-0.9-1.5-7.8-1.6-8.7c-0.1-0.5-0.2-1-0.2-1.5c0-0.8,0-1.5,0-2.3c0-0.3,0-0.5,0.1-0.8c0.5-1.1,1-2.3,1.5-3.4
		c0.1-0.1,0.2-0.3,0.3-0.3c0.1,0,0.3,0.1,0.3,0.3c0.2,0.5,0.4,1,0.5,1.5c0.1,0.8,0.1,1.7,0,2.5c-0.1,1.1-0.3,2.1-0.5,3.2
		c0,0.2,0,0.3,0,0.5c0.2-0.1,0.6-0.2,0.6-0.3c0.1-1.2,0.7-2.3,0.4-3.5c0-0.1,0.1-0.2,0.1-0.3c0.2-0.5,0.4-0.9,0.6-1.4
		c0.3-0.7,0.7-1.4,1.6-1.6c0.2,0,0.4,0,0.5,0.1c0,0,0,0,0,0l0.3-0.2C18,63.3,17.8,63.2,17.6,62.9z"/>
	<path d="M18.1,63.3l-0.3,0.2c0.1-0.1,0.3-0.1,0.4-0.2C18.2,63.3,18.2,63.3,18.1,63.3z"/>
	<path class="st4" d="M92.1,44.2c-0.4-1.8-1-3.5-1.6-5.3c-0.1-0.2-0.1-0.3-0.2-0.5c-0.5-0.6-0.9-1.2-1.4-1.9
		c-0.8-1.1-1.5-2.1-2.3-3.2c-0.2-0.3-0.3-0.8-0.9-0.7c0,0-0.1-0.1-0.2-0.1c-0.2-0.3-0.5-0.6-0.7-0.9c-0.3-0.4-0.7-0.8-1.1-1.2
		c-0.4-0.4-0.9-0.6-1.5-0.6c-0.6,0-1.1-0.4-1.7-0.5c-0.8-0.1-1.6-0.1-2.4-0.3c-0.9-0.2-1.9-0.2-2.8-0.2c-0.4,0-0.7,0.3-1.1,0.2
		c-0.7-0.1-1.2,0.2-1.8,0.4c-0.5,0.3-1,0.7-1.1,1.4c-0.1,0.6,0.1,1,0.7,1c0.4,0,0.7,0.1,1.1,0.2c0.9,0.3,1.8,0.7,2.7,0.9
		c0.8,0.3,1.7,0.1,2.5,0c1.2-0.1,2.1,0.3,2.6,1.2c0.3,0.7,0.7,1.3,1,2c0.4,1.1,0.8,2.3,1.1,3.5c0,0.2-0.1,0.4-0.2,0.5
		c-0.1,0.1-0.4,0-0.6-0.1c-0.5-0.2-1-0.5-1.4-0.8c-0.7-0.5-1.5-0.8-2.1-1.4c-0.8-0.8-1.5-1.7-2.2-2.6c-0.7-0.9-1.3-1.9-2.4-2.3
		c-0.4-0.2-0.8-0.5-1.2-0.6c-0.3-0.1-0.6-0.1-0.9-0.1c0,0.2,0,0.4,0,0.7c0.1,0.1,0.1,0.2,0.1,0.4c0,0-0.1,0.1-0.1,0.1
		c0,0.3,0,0.7,0,1c0.2,0.5,0.3,1,0.5,1.5c0.3,1.2,0.9,2.1,1.8,2.9c0.3,0.3,0.3,0.6-0.1,0.8c-0.2,0.1-0.4,0.3-0.5,0.4
		c-0.7,0.9-0.7,1.5,0,2.5c0,0,0,0,0,0.1c0.5,0.1,0.9,0.4,1.3,0.8c0.2-0.1,0.4-0.2,0.6-0.3c0.1-0.1,0.4,0,0.6,0.1
		c-0.1,0.2-0.1,0.4-0.2,0.5c-0.1,0.1-0.3,0.2-0.4,0.3c0.2,0.2,0.3,0.4,0.4,0.7c0.1,0,0.2-0.1,0.2-0.1c0.2,0.9,0.7,1.5,1.6,1.6
		c0.4,0,0.7-0.1,1.1-0.1c0.2,0,0.5,0,0.6,0.1c0.4,0.8,0.9,1.7,1.2,2.5c0.4,1,1,2,1.7,2.8c0.4,0.5,0.8,1,1.2,1.5
		c0.5,0.5,0.9,1.2,1.9,0.9c0.2-0.1,0.5,0.4,0.7,0.6c0.1,0.1-0.1,0.3-0.1,0.4c0.4,0.2,0.6,0.5,0.8,0.9c0.1,0.3,0.4,0.6,0.5,0.8
		c0.1,0.2,0.1,0.4,0.2,0.6c0,0-0.1,0-0.1,0.1c-0.1-0.1-0.3-0.2-0.4-0.3c0,0-0.1,0.1-0.1,0.1c0.3,0.1,0.2,0.7,0.8,0.6
		c0.1,0,0.3,0.1,0.3,0.2c0.2,0.6,0.8,0.9,1.2,1.3c0.1,0.1,0.4,0.1,0.7,0.1c0-0.2,0-0.5-0.2-0.6c-0.7-0.6-1.4-1.1-1.9-1.9
		c-0.5-0.8-0.7-1.7-0.8-2.6c0-0.1,0.1-0.2,0.2-0.3c0.8-0.6,1.7-1.1,2.6-1.7c0.3-0.2,0.6-0.5,1-0.6c0.5-0.1,0.7-0.3,0.8-0.8
		c0.2-0.6,0.4-1.1,0.5-1.7c0.1-0.7,0.1-1.5,0.1-2.3C92.3,46,92.3,45.1,92.1,44.2z M78.8,45.5c-0.7,0.3-1.6,0.2-1.8-0.4
		c-0.2-0.6-0.4-1,0.2-1.5c0.3-0.3,0.2-0.8-0.2-1c-0.1,0-0.3,0-0.4,0.1c-0.2,0.1-0.3,0.2-0.5,0.3c-0.3,0.2-0.6,0.1-0.7-0.3
		c-0.1-0.4-0.3-0.6-0.6-0.1c-0.2,0.3-0.5,0.3-0.8,0c-0.5-0.6-0.3-1.6,0.4-2c0.1-0.1,0.2-0.2,0.3-0.3c0.3-0.4,0.4-0.4,0.8,0
		c0.6,0.6,1.2,1.1,1.8,1.7c0.7,0.7,1.3,1.4,1.6,2.4C79,44.8,79.4,45.2,78.8,45.5z M91.4,49.7c0,0.4-0.1,0.9-0.2,1.3
		c0,0.1-0.2,0.3-0.3,0.3c-0.1,0-0.3-0.1-0.3-0.2c-0.2-0.3-0.4-0.2-0.5,0c-0.6,0.7-1.3,1.1-2.1,1.4c-0.2,0-0.3,0.2-0.4,0.3
		c-0.5,0.6-1.1,0.6-1.8,0.7c-1.1,0.1-1.5-0.8-2.2-1.3c-0.9-0.8-1.4-1.9-1.9-2.9c-0.5-1-1.1-2.1-1.6-3.1c-0.2-0.4-0.2-1-0.3-1.4
		c0-0.1,0-0.1,0-0.2c-0.4-0.7-0.8-1.4-1.3-2.1c-0.4-0.5-0.9-1-1.4-1.5c-0.3-0.3-0.6-0.5-0.9-0.7c-0.3-0.2-0.5-0.4-0.7-0.6
		c-0.5-0.6-1-1.2-1.4-1.7c-0.1-0.2-0.3-0.4-0.4-0.6c-0.3-1-1.1-1.8-1-2.9c0-0.3,0.1-0.5,0.2-0.7c0.1-0.1,0.3-0.2,0.4-0.1
		c0.6,0.4,1.3,0.9,1.9,1.4c0.3,0.3,0.6,0.6,0.9,0.9c0.4,0.6,0.8,1.2,1.2,1.8c0.5,0.7,1.1,1.3,1.8,1.8c1,0.6,2.1,1.3,3.1,2
		c0.6,0.4,0.9,0.3,1.3-0.2c0.6-0.7,0.2-1.4,0-2.1c-0.2-0.6-0.4-1.3-0.6-1.9c-0.1-0.4-0.4-0.7-0.6-1.1c-0.2-0.5-0.4-1-0.6-1.5
		c-0.5-1.2-1.5-2.1-3-2c-1.4,0.1-2.8,0.1-4.2-0.4c-0.7-0.3-1.5-0.6-2.2-0.9c0.2-0.9,0.7-1.2,1.6-1.3c1-0.1,2.1-0.2,3.1-0.2
		c0.6,0,1.2,0.2,1.7,0.3c0.9,0.2,1.8,0.2,2.6,0.4c1.1,0.4,2.3,0.6,2.9,1.8c0.3,0.6,0.9,1.1,1.4,1.6c0.6,0.7,1.4,1.2,1.8,2.1
		c0.2,0.4,0.6,0.8,0.9,1.2c1.2,1.4,1.8,3.1,2.2,4.8c0.2,0.9,0.6,1.8,0.8,2.8c0.1,0.6,0.1,1.2,0.1,1.8C91.5,47.5,91.5,48.6,91.4,49.7
		z"/>
	<path class="st5" d="M73.3,45.8c-0.7,0.5-1.3,1-2,1.4c-1,0.6-2,1.1-3.1,1.6c-0.3,0.1-0.5,0.3-0.7,0.5c-0.3,0.2-0.5,0.1-0.6-0.2
		c-0.1-0.2-0.2-0.3-0.4-0.5c0.3-0.2,0.6-0.3,0.9-0.5c0.6-0.3,1.2-0.6,1.7-0.9c0.5-0.3,1-0.6,1.5-0.8c1.1-0.5,2.2-1.2,3.1-1.9
		c0.4-0.3,0.9-0.5,1.3-0.7c-0.4-0.4-0.8-0.6-1.3-0.8c0.1,0.2,0.2,0.5-0.1,0.7c-0.6,0.4-1.2,0.8-1.9,1.1c-0.5,0.3-1,0.7-1.6,1
		c-0.2,0.1-0.5,0.3-0.7,0.4c-0.9,0.5-1.9,0.9-2.8,1.3c-0.3,0.2-0.5,0.1-0.6-0.2c0,0,0-0.1,0-0.1c0-0.7-0.3-1.2-0.6-1.8
		c-0.5-0.9-0.9-1.8-1.3-2.7c-0.5-0.9-1-1.7-1.5-2.5c-0.4-0.7-0.3-1,0.6-1.3c0.7-0.3,1.4-0.4,2-0.9c0.6-0.4,1.2-0.7,1.9-0.8
		c1.1-0.2,2.2-0.2,3.2-0.4c0.2,0,0.3-0.3,0.4-0.5c-0.2-0.1-0.3-0.3-0.5-0.3c-2.1,0.3-4.2,0.5-6.1,1.5c-0.7,0.4-1.3,0.7-2,1
		c-0.3,0.1-0.5,0.2-0.7-0.1c-0.2-0.3-0.1-0.5,0.2-0.7c1.6-1.2,3.4-2.1,5.4-2.6c0.9-0.2,1.8-0.5,2.7-0.7c0.7-0.1,1.3-0.2,2-0.2
		c0,0.1,0.1,0.3,0.1,0.4c0-0.3,0-0.7,0-1c-0.1,0.1-0.2,0.1-0.3,0.1c-0.7,0-1.4-0.2-2.1-0.1c-1,0.1-2.1,0.3-3,0.6
		c-1.2,0.4-2.4,1-3.6,1.6c-0.8,0.4-1.6,0.9-2.5,1.4c-0.1-0.1-0.3-0.3-0.4-0.5c-0.2-0.3-0.4-0.6-0.6-0.8c-0.1-0.1-0.4,0-0.6,0
		c0,0,0,0.3,0,0.4c0.1,0.2,0.2,0.5,0.4,0.7c0.3,0.5,0.5,1,0.8,1.3c0.4,0.3,0.6,0.5,0.9,0.9c0.8,1.3,1.6,2.6,2.4,4
		c0.3,0.6,0.5,1.2,0.8,1.8c0.4,1,0.9,2.1,1.3,3.1c0.2,0.4,0.4,0.9,0.6,1.2c0.4,0.6,0.7,1.2,0.3,1.9c-0.1,0.2-0.3,0.4-0.4,0.6
		c-0.6,1-1.5,1.7-2.4,2.3c-1,0.7-2,1.4-3,2c-0.7,0.4-1.3,0.8-2,1.2c-0.9,0.5-1.9,0.8-2.7,1.3c-1.1,0.6-2.1,1.3-3.1,1.9
		c-1.4,0.8-2.9,1.5-4.3,2.1c-1.4,0.7-2.8,1.2-4.2,1.9c-0.6,0.3-1.2,0.6-1.7,0.9c-0.9,0.4-1.8,0.8-2.7,1.2c-0.7,0.4-1.4,0.8-2.1,1.2
		c-0.3,0.1-0.5,0.3-0.8,0.4c-0.8,0.5-1.6,1.1-2.5,1.6c-0.1,0.1-0.4,0-0.5-0.2c-0.2-0.5-0.4-0.9-0.6-1.4c0-0.1,0.1-0.4,0.2-0.5
		c0.4-0.2,0.5-0.4,0.3-0.8c-0.2-0.4-0.5-0.1-0.7-0.1c-0.3,0.1-0.5,0.1-0.6-0.2c-0.7-1.7-1.3-3.3-2-5c-0.3-0.7-0.5-1.5-0.8-2.2
		c-0.2-0.5-0.3-1-0.5-1.5c-0.1-0.3-0.2-0.6,0.1-0.8c0.1-0.1,0.1-0.2,0.1-0.3c0-0.1-0.2-0.1-0.2-0.1c-0.3,0.1-0.4-0.1-0.5-0.4
		c-0.1-0.4-0.2-0.7-0.3-1.1c-0.2-0.4-0.4-0.8-0.6-1.2c-0.5-0.9-0.8-1.1,0.1-1.8c0.1,0,0.1-0.1,0.1-0.2c0.6-0.5,1.2-1.1,1.8-1.6
		c0.9-0.7,1.9-1.2,2.9-1.8c0.9-0.6,1.8-1.1,2.6-1.7c0.2-0.1,0.4-0.2,0.6-0.3c0.5-0.4,1-0.8,1.6-1.1c0.6-0.4,1.3-0.8,2-1.3
		c1-0.7,2-1.5,3-2.1c1.1-0.6,2.3-1.1,3.5-1.6c0.1-0.1,0.3-0.1,0.4-0.2c1.5-0.7,2.9-1.4,4.5-2c1.6-0.6,3.3-1,4.9-1.5
		c0.6-0.2,1.2-0.4,1.8-0.6c0.3-0.1,0.7-0.2,0.5-0.6c-0.1-0.5-0.5-0.3-0.8-0.2c-0.7,0.2-1.4,0.5-2.1,0.7c-1.8,0.6-3.5,1.2-5.3,1.8
		c-0.6,0.2-1.2,0.5-1.8,0.8c-0.6,0.3-1.2,0.5-1.8,0.8c-1.2,0.6-2.3,1.1-3.5,1.7c-0.9,0.5-1.7,0.9-2.6,1.5c-0.9,0.6-1.8,1.3-2.8,1.9
		c-0.9,0.6-1.9,1.3-2.9,1.9c-1.1,0.7-2.1,1.4-3.2,2.1c-0.2,0.1-0.4,0.3-0.6,0.5c-0.6,0.4-1.2,0.7-1.8,1.1c-0.9,0.7-1.8,1.5-2.7,2.3
		c-0.3,0.3-0.4,0.8-0.1,1c0.8,0.5,1.1,1.3,1.3,2.2c0.1,0.2,0.1,0.5,0.2,0.7c0.3,0.6,0.2,0.9-0.4,1.2c-0.8,0.4-1.8,0.8-2.5,1.4
		c-1.1,1-2.6,1.4-3.9,2.1c-0.8,0.5-1.6,0.9-2.3,1.6c-0.3,0.3-0.4,0.4-0.6,0.4c-0.1,0.1-0.3,0.1-0.4,0.2l0,0
		c-0.1,0.2-0.1,0.3-0.2,0.5c0,0.2-0.1,0.4-0.1,0.6c0.2-0.1,0.4-0.1,0.5-0.2c0.7-0.6,1.4-1.3,2.1-1.8c1-0.6,2.1-1,3.1-1.5
		c0.1-0.1,0.3-0.2,0.4-0.2c0.6-0.4,1.2-0.7,1.8-1.1c0.1,0,0.2,0,0.3,0c-0.1,0.2-0.2,0.3-0.3,0.4c-0.4,0.3-0.9,0.6-1.3,0.9
		c-0.9,0.8-1.7,1.5-2.5,2.3c-0.9,0.9-2.1,1.7-2.5,3c0,0.1-0.2,0.2-0.2,0.2c-0.1-0.2-0.3-0.3-0.4-0.4c0,1,0.8,1.8,1.1,2.8
		c0.1,0,0.1,0,0.1,0c0.1,0.1,0.3,0.2,0.4,0.3c0.4,0.6,1,0.6,1.6,0.5c0.7,0,1.4,0,2.1,0c0.4,0,0.8,0.2,1.1,0.1
		c0.8-0.1,1.5-0.3,2.3-0.5c0.2,0,0.4-0.1,0.6-0.1c0.9-0.3,1.8-0.5,2.7-0.8c0.4-0.1,0.8-0.4,1.3-0.5c0.1,0,0.5,0.2,0.5,0.3
		c0.3,0.8,0.5,1.5,0.8,2.3c0.2,0.7,0.4,0.8,1,0.4c0.2-0.1,0.5-0.2,0.7-0.4c0.6-0.4,1.2-0.9,1.9-1.3c0.7-0.4,1.5-0.8,2.2-1.3
		c0.5-0.3,1-0.8,1.5-1c1.1-0.5,2.3-0.8,3.3-1.5c0.7-0.5,1.6-0.8,2.4-1.2c1-0.5,1.9-0.9,2.9-1.3c1.6-0.7,3.2-1.3,4.6-2.3
		c1.1-0.7,2.2-1.3,3.4-1.9c1.5-0.7,3-1.4,4.4-2.4c0.2-0.2,0.4-0.3,0.7-0.5c0.9-0.6,1.8-1.1,2.6-1.8c0.8-0.6,1.4-1.4,2.1-2.1
		c0.1-0.1,0.3-0.3,0.3-0.5c0.1-0.2,0.3-0.5,0.3-0.8c-0.1-0.8,0.1-1.1,0.7-1.5c1-0.5,1.9-1,2.9-1.5c0.3-0.1,0.6-0.3,0.9-0.5
		c0.5-0.4,0.9-0.9,1.6-1.1c0.2-0.1,0.4-0.2,0.5-0.3c0.5-0.4,1.1-0.9,1.6-1.3c0,0,0.1,0,0.1,0c-0.1-0.2-0.3-0.5-0.4-0.7
		C74.8,44.8,74.1,45.3,73.3,45.8z M31.5,67.7c-1,0.3-1.9,0.6-2.9,0.9c-1,0.2-2,0.4-3,0.6c-0.4,0.1-0.8-0.1-1.2-0.1
		c-0.8,0-1.7-0.1-2.5,0c-0.8,0-1.4-0.4-1.8-1c-0.4-0.6-0.1-1.3,0.3-1.9c0.7-0.9,1.6-1.7,2.4-2.5c0.7-0.7,1.4-1.4,2.2-1.9
		c0.8-0.7,1.7-1.2,2.6-1.8c0.4-0.3,0.8-0.6,1.3-1c0.3,1.1,0.6,2,0.9,2.9c0.6,1.7,1.3,3.3,2,5C32,67.3,31.9,67.5,31.5,67.7z"/>
	<polygon points="86.1,55.2 86.1,55.2 86.1,55.2 	"/>
	<path class="st4" d="M20.1,71.5c-0.1-0.1-0.3-0.3-0.3-0.4c0.3-0.7-0.1-1.2-0.2-1.8c0-0.1,0-0.2,0-0.3c0.1,0,0.1,0,0.2,0
		c-0.3-1-1.1-1.8-1.1-2.8c-0.1-0.1-0.2-0.2-0.3-0.3c-0.4-0.4-1-0.4-1.3,0c-0.5,0.6-1.2,1-1.3,1.9c-0.1,1-0.5,1.9-0.7,2.9
		c-0.1,0.5,0,1,0,1.6c0,0.9,0,1.7,0.1,2.6c0.4,0,0.8,0.2,0.9-0.3c0-0.4,0-0.8-0.1-1.2c0-0.4-0.2-0.8-0.1-1.1
		c0.1-1.1,0.1-2.2,0.3-3.3c0.2-0.9,0.7-1.7,1.4-2.4c0.1-0.1,0.5-0.2,0.6-0.1c0.3,0.3,0.6,0.7,0.8,1.1c0.1,0.2-0.1,0.5,0,0.8
		c0.1,1,0.3,1.9,0.5,2.9c0,0.2,0.2,0.4,0.2,0.5c0,1,0,2,0.1,3c0.1,0.8,0.1,1.6,0.5,2.4c0.3,0.8,0.8,1.5,1.1,2.2
		c0.7,1.7,1.1,3.4,0.9,5.2c0,0.2,0,0.4,0,0.6c0,0,0.1,0.1,0.1,0.1c0.2-0.2,0.6-0.4,0.6-0.6c0-1.1-0.1-2.3-0.3-3.4
		c-0.1-0.7-0.5-1.2-0.8-1.9c-0.4-0.9-0.8-1.9-1.1-2.8c0-0.1,0.1-0.4,0.2-0.5c0.8-0.2,1.3-0.7,1.8-1.2c0.3-0.3,0.3-0.6,0-0.9
		c-0.5-0.8-1.4-0.7-2.1-0.8c-0.2,0-0.4-0.1-0.6-0.2c0,0.1-0.1,0.1-0.1,0.2c0.1-0.1,0.1-0.1,0.1-0.2c-0.1-0.1-0.3-0.2-0.4-0.3
		c0.2-0.1,0.4-0.2,0.6-0.2C20.3,72,20.2,71.8,20.1,71.5z M20.9,73.7c0.3,0,0.6,0.1,1,0.1c0.3,0,0.5,0.2,0.2,0.4
		c-0.4,0.4-0.8,0.7-1.2,1c-0.3,0.2-0.4,0-0.5-0.3c-0.1-0.2-0.1-0.4-0.1-0.6C20.2,74,20.5,73.7,20.9,73.7z"/>
	<path class="st5" d="M31.3,69.6c-0.2,0-0.3,0.1-0.5,0.2c-1.1,0.5-2.2,1-3.4,1.5c-0.6,0.3-1.3,0.4-2,0.4c-0.9,0-1.8,0.2-2.7,0.2
		c-0.9,0-1.7-0.1-2.6-0.2c0,0,0,0-0.1,0c0.1,0.2,0.2,0.5,0.2,0.8c0.2,0,0.5,0,0.8,0.1c0.5,0.2,1.2,0.2,1.8,0.3
		c0.7,0,1.4-0.1,2.1-0.1c1.3,0,2.4-0.3,3.5-0.9c0.7-0.3,1.5-0.6,2.2-0.9c0.3-0.1,0.7-0.2,1-0.4c0.1-0.1,0.2-0.4,0.2-0.6
		C31.6,69.6,31.4,69.5,31.3,69.6z"/>
	<path class="st5" d="M30.1,57.3c0.4-0.3,0.7-0.7,1.1-0.9c1.1-0.7,2.1-1.3,3.2-1.9c1.1-0.7,2.3-1.3,3.4-2c1.1-0.6,2.2-1.2,3.2-1.9
		c0.7-0.5,1.4-1.1,2.1-1.6c0.3-0.2,0.7-0.3,1-0.4c0.8-0.3,1.7-0.5,2.5-0.9c1.4-0.5,2.7-1.1,4.1-1.6c0.3-0.1,0.5-0.2,0.8-0.3
		c0.6-0.3,1.1-0.6,1.7-0.8c0.5-0.2,1-0.4,1.5-0.6c1.2-0.5,2.4-1.1,3.6-1.6c0.7-0.3,1.3-0.7,2-1c0.2-0.1,0.5-0.2,0.6,0.2
		c0.1,0.3,0,0.6-0.3,0.7c-1,0.1-1.7,0.9-2.5,1.3c-1.1,0.5-2.2,1-3.4,1.5c-0.7,0.3-1.4,0.7-2.1,1c-1,0.4-1.9,0.9-2.9,1.3
		c-1.3,0.5-2.6,0.9-3.9,1.4c-1,0.4-2,0.9-3,1.4c-0.2,0.1-0.4,0.3-0.5,0.4c-1.1,0.7-2.2,1.5-3.4,2.2c-0.9,0.6-2,1.1-2.9,1.6
		c-0.7,0.4-1.4,0.9-2.1,1.3c-0.2,0.1-0.4,0.2-0.6,0.3c-0.7,0.4-1.3,0.8-2,1.1c-0.3,0.1-0.6,0.2-0.9,0.3
		C30.2,57.4,30.2,57.3,30.1,57.3z"/>
	<path class="st5" d="M47.1,51c0.2,0,0.4-0.1,0.5-0.1c0.7,0.2,1.3,0,1.9-0.2c1.8-0.6,3.6-1.1,5.4-1.7c1.3-0.5,2.5-1.1,3.8-1.7
		c1-0.4,1.9-0.9,2.9-1.3c0.1-0.1,0.5,0,0.5,0.1c0.1,0.1,0,0.5-0.1,0.6c-0.2,0.2-0.5,0.3-0.8,0.5c-0.7,0.3-1.5,0.6-2.2,1
		c-2.5,1.3-5.2,2.3-7.9,3c-1,0.3-2,0.7-3,0.7c-1.1,0.1-1.6,0.8-2.3,1.4c-0.6,0.5-1.2,1-1.7,1.5c-0.9,0.7-1.8,1.5-2.7,2.2
		c-0.6,0.5-1.3,0.8-2,1.3c-0.6,0.4-1.1,0.8-1.6,1.2c-0.2,0.1-0.5,0.2-0.7,0.4c-0.6,0.3-1.1,0.6-1.7,0.9c-0.3,0.2-0.6,0.4-0.8,0.5
		c-0.3,0.2-0.5,0.1-0.6-0.2c-0.1-0.3-0.1-0.6,0.3-0.7c0.4-0.1,0.8-0.3,1.2-0.5c1-0.6,2.1-1.2,3.1-1.8c1.2-0.8,2.4-1.6,3.6-2.5
		c1.1-0.9,2.2-1.9,3.3-2.9c0.4-0.4,0.9-0.7,1.1-1.2C46.7,51.1,47,51,47.1,51z"/>
	<path class="st5" d="M53.7,55.8c-0.5,0.1-1.1,0.2-1.6,0.1c-1-0.1-1.5,0.7-2.2,1.2c-0.5,0.4-0.9,0.8-1.4,1.2c-0.5,0.4-1,0.7-1.6,1.1
		c-0.5,0.3-1,0.7-1.5,1c-0.8,0.5-1.6,1.1-2.4,1.6c-0.6,0.4-1.1,0.8-1.7,1.2c-0.1,0.1-0.3,0.1-0.4,0.1c-0.1-0.1-0.2-0.3-0.1-0.4
		c0.1-0.2,0.2-0.5,0.4-0.6c0.9-0.6,1.8-1.2,2.7-1.8c0.5-0.4,1-0.7,1.5-1.1c0.2-0.1,0.4-0.2,0.6-0.4c0.8-0.5,1.6-1,2.4-1.6
		c0.7-0.6,1.4-1.3,2-2C50.7,55,51,55,51.4,55c0.5,0,1,0.1,1.5-0.1c1.2-0.4,2.4-0.8,3.6-1.3c0.9-0.4,1.8-1.1,2.7-1.6
		c0.1,0,0.1-0.1,0.2-0.1c0.2,0,0.5,0,0.7,0c-0.1,0.2-0.1,0.6-0.3,0.7c-1.3,0.9-2.7,1.8-4.2,2.3C54.9,55.1,54.3,55.4,53.7,55.8z"/>
	<path class="st6" d="M52.7,42.2c-0.1,0-0.3,0.1-0.5,0.2c-1,0.3-2.1,0.4-3.1,0.9c-0.5,0.2-1,0.4-1.5,0.6c-0.9,0.5-1.8,1-2.7,1.5
		c-0.4,0.2-0.9,0.4-1.4,0.6c-0.8,0.4-1.6,0.8-2.4,1.3c-0.3,0.2-0.4,0.5-0.7,0.7c-0.4,0.3-0.8,0.6-1.2,0.8c-0.2,0.1-0.6,0-0.8-0.1
		c-0.2-0.2-0.8-0.3-0.5-0.8c0.2-0.3,0.3-0.7,0.6-0.9c0.6-0.5,1.4-0.9,2-1.3c0.9-0.6,1.8-1.2,2.7-1.7c1.6-0.9,3.3-1.7,5-2.5
		c0.5-0.3,1.1-0.3,1.6-0.8c0.4-0.4,0.9-0.2,1.4,0.4C51.9,41.4,52.3,41.8,52.7,42.2z M38.8,48.2c0.2-0.1,0.4-0.1,0.5-0.2
		c0.6-0.6,1.4-1.1,2.2-1.5c0.4-0.2,0.8-0.4,1.2-0.7c0.3-0.2,0.6-0.5,0.9-0.6c1.1-0.5,2.1-1.1,3.2-1.6c1.3-0.6,2.7-1,4-1.6
		c0.1,0,0.2-0.1,0.4-0.2c-0.3-0.3-0.6-0.6-0.8-0.8c-0.4,0.2-0.6,0.4-0.9,0.6c-1.1,0.5-2.1,1-3.2,1.4c-0.3,0.1-0.5,0.2-0.8,0.4
		c-0.8,0.4-1.5,1-2.3,1.3c-1.2,0.5-2.3,1.1-3.3,1.8C39.5,46.9,38.9,47.3,38.8,48.2z"/>
	<path d="M43.6,36.4"/>
	<path class="st3" d="M74.2,39.9c0.3-0.3,0.4-0.5,0.1-0.8c-0.9-0.8-1.5-1.8-1.8-2.9c-0.1-0.5-0.3-1-0.5-1.5c0,0.1,0,0.3,0,0.4
		c0-0.1,0-0.3,0-0.4c0-0.1-0.1-0.3-0.1-0.4c-0.7,0.1-1.4,0.1-2,0.2c-0.9,0.2-1.8,0.5-2.7,0.7c-2,0.5-3.8,1.4-5.4,2.6
		c-0.2,0.2-0.4,0.4-0.2,0.7c0.2,0.3,0.4,0.3,0.7,0.1c0.7-0.3,1.3-0.6,2-1c1.9-1,4-1.2,6.1-1.5c0.1,0,0.3,0.2,0.5,0.3
		c-0.1,0.2-0.3,0.4-0.4,0.5c-1.1,0.2-2.2,0.2-3.2,0.4c-0.7,0.1-1.3,0.3-1.9,0.8c-0.6,0.4-1.3,0.6-2,0.9c-0.8,0.3-1,0.6-0.6,1.3
		c0.5,0.9,1,1.7,1.5,2.5c0.5,0.9,0.9,1.8,1.3,2.7c0.3,0.6,0.6,1.1,0.6,1.8c0,0,0,0.1,0,0.1c0.1,0.3,0.2,0.4,0.6,0.2
		c0.9-0.5,1.9-0.9,2.8-1.3c0.3-0.1,0.5-0.3,0.7-0.4c0.5-0.3,1-0.7,1.6-1c0.6-0.4,1.3-0.7,1.9-1.1c0.3-0.2,0.2-0.4,0.1-0.7
		c-0.5-0.1-1.1-0.1-1.7,0.1c0.7-0.2,1.2-0.2,1.7-0.1c0,0,0,0,0-0.1c-0.7-1-0.7-1.6,0-2.5C73.8,40.1,74,40,74.2,39.9z"/>
	<path class="st3" d="M38.8,48.2c0.1-0.8,0.7-1.2,1.2-1.6c1-0.7,2.1-1.3,3.3-1.8c0.8-0.3,1.5-0.9,2.3-1.3c0.3-0.1,0.5-0.3,0.8-0.4
		c1.1-0.5,2.1-1,3.2-1.4c0.3-0.1,0.6-0.3,0.9-0.6c0.2,0.2,0.5,0.5,0.8,0.8C51.1,42,51,42,50.9,42.1c-1.3,0.5-2.7,1-4,1.6
		c-1.1,0.5-2.1,1-3.2,1.6c-0.3,0.2-0.6,0.4-0.9,0.6c-0.4,0.2-0.8,0.5-1.2,0.7c-0.8,0.4-1.6,0.8-2.2,1.5C39.2,48.1,39,48.1,38.8,48.2
		z"/>
</g>
<g>
	<g>
		<path class="st6" d="M35,30c2,0.8,3.9,2,5.2,3.8c1.2,1.7,1.7,3.7,2.2,5.7c0.2-0.1,0.4-0.3,0.6-0.4c-0.9-0.5-1.7-1-2.6-1.6
			c-0.2,0.2-0.3,0.4-0.5,0.6c0.8,0.5,1.7,1,2.5,1.5c0.2,0.1,0.6,0,0.6-0.3c0-1,0-1.9,0.1-2.9c0-0.5-0.7-0.5-0.8,0c0,1,0,1.9-0.1,2.9
			c0.2-0.1,0.4-0.2,0.6-0.3c-0.8-0.5-1.7-1-2.5-1.5c-0.4-0.2-0.8,0.3-0.5,0.6c0.9,0.7,1.7,1.2,2.7,1.7c0.3,0.1,0.6-0.1,0.6-0.4
			c-1.2-4.7-3.2-8.1-7.9-10C34.8,29.1,34.6,29.8,35,30L35,30z"/>
	</g>
</g>
<g class="st7">
	<ellipse class="st8" cx="112" cy="16.5" rx="3" ry="4.5"/>
	<ellipse class="st9" cx="121.5" cy="17" rx="3.5" ry="5"/>
</g>
</svg>
